<!DOCTYPE svg PUBLIC "-//W3C//DTD SVG 20010904//EN" "http://www.w3.org/TR/2001/REC-SVG-20010904/DTD/svg10.dtd">
<svg version="1.0" xmlns="http://www.w3.org/2000/svg" width="1080px" height="1080px" viewBox="0 0 10800 10800" preserveAspectRatio="xMidYMid meet">
<g id="layer101" fill="#010101" stroke="none">
 <path d="M0 5400 l0 -5400 5400 0 5400 0 0 5400 0 5400 -5400 0 -5400 0 0 -5400z"/>
 </g>
<g id="layer102" fill="#2f2f2f" stroke="none">
 <path d="M0 5400 l0 -5400 5400 0 5400 0 0 3620 0 3619 -32 5 c-18 2 -44 4 -58 4 -55 0 -187 11 -203 18 -10 3 -40 4 -68 2 -27 -3 -52 -1 -55 4 -4 6 -28 7 -55 3 -32 -4 -55 -3 -63 4 -7 6 -22 10 -32 9 -11 -1 -53 1 -94 6 -41 5 -87 10 -101 11 -14 1 -31 5 -37 9 -6 4 -40 8 -74 10 -35 2 -70 6 -79 10 -9 4 -20 6 -25 5 -11 -3 -68 6 -197 32 -54 11 -103 17 -108 13 -5 -3 -15 -1 -22 4 -7 5 -19 9 -27 9 -8 0 -52 10 -97 22 -46 11 -86 20 -90 19 -5 0 -15 1 -23 4 -44 16 -183 48 -188 44 -3 -3 -11 -1 -19 5 -7 6 -23 9 -35 5 -13 -3 -36 -1 -53 4 -16 6 -86 25 -155 44 -149 41 -375 118 -444 152 -28 13 -57 24 -67 24 -9 0 -22 7 -29 15 -7 8 -27 17 -46 21 -19 3 -37 10 -40 15 -3 5 -13 9 -23 9 -10 0 -24 6 -30 13 -6 8 -30 20 -53 27 -24 8 -50 19 -58 25 -8 6 -31 18 -50 25 -19 7 -85 37 -147 67 -61 29 -116 53 -123 53 -7 0 -23 9 -37 20 -14 11 -34 20 -44 20 -10 0 -21 5 -24 10 -12 19 -37 11 -30 -9 3 -11 1 -22 -5 -26 -7 -5 -11 -33 -9 -74 1 -36 -1 -73 -4 -81 -10 -25 -55 -192 -68 -250 -6 -30 -15 -62 -20 -72 -5 -9 -11 -36 -13 -60 -2 -23 -9 -56 -14 -73 -23 -69 -43 -143 -41 -151 1 -5 0 -16 -3 -24 -9 -22 -40 -152 -43 -175 -1 -11 -5 -27 -8 -35 -12 -35 -50 -194 -52 -219 -1 -14 -4 -33 -8 -41 -10 -25 -40 -143 -43 -170 -1 -14 -3 -25 -4 -25 -2 0 -4 -9 -5 -20 -2 -11 -11 -47 -20 -80 -28 -98 -34 -128 -29 -137 3 -5 1 -14 -4 -21 -5 -7 -13 -28 -17 -47 -4 -19 -13 -55 -21 -79 -8 -24 -13 -50 -10 -57 3 -7 1 -16 -4 -19 -6 -4 -10 -14 -10 -24 0 -10 -9 -47 -20 -82 -11 -35 -18 -69 -16 -76 3 -7 1 -15 -4 -18 -4 -3 -11 -24 -15 -47 -4 -24 -14 -60 -21 -82 -8 -21 -16 -53 -19 -70 -2 -17 -11 -56 -20 -86 -9 -30 -27 -95 -40 -145 -57 -214 -65 -243 -88 -308 -14 -37 -28 -71 -31 -74 -15 -15 -85 -34 -140 -37 -45 -4 -65 -10 -85 -29 -68 -64 -175 -136 -212 -142 -49 -8 -138 3 -164 21 -11 8 -27 14 -35 14 -9 0 -34 13 -56 30 -21 16 -44 30 -50 30 -15 0 -135 123 -184 189 -41 55 -115 199 -145 284 -9 26 -21 47 -26 47 -12 0 -189 -78 -252 -111 -10 -6 -36 -19 -58 -31 -24 -12 -42 -30 -45 -44 -7 -28 6 -219 15 -219 1 0 4 -17 6 -39 2 -21 11 -49 20 -62 8 -13 15 -30 15 -37 0 -20 55 -122 98 -182 32 -44 88 -107 145 -163 9 -9 37 -36 60 -59 24 -24 49 -43 55 -43 7 0 12 -4 12 -8 0 -9 134 -112 145 -112 4 0 21 -11 39 -25 18 -14 40 -25 49 -25 16 0 22 -17 17 -50 -4 -32 -27 -41 -121 -46 -52 -3 -114 -7 -139 -9 -25 -1 -55 -3 -67 -4 -32 -2 -29 -17 5 -26 56 -13 290 -136 366 -192 43 -32 85 -62 93 -68 18 -13 165 -159 178 -178 46 -64 135 -200 135 -206 0 -6 14 -45 55 -146 4 -11 9 -24 10 -30 1 -5 3 -12 4 -15 1 -3 4 -36 7 -75 3 -38 10 -74 15 -80 11 -12 12 -47 0 -77 -5 -13 -14 -56 -20 -96 -12 -79 -58 -197 -95 -247 -33 -44 -38 -63 -22 -88 20 -31 23 -100 5 -127 -22 -33 -108 -41 -138 -11 -39 39 -38 76 3 172 4 9 -2 25 -14 39 -12 13 -30 44 -41 69 -29 66 -79 141 -94 141 -7 0 -20 11 -29 24 -23 36 -109 65 -182 62 -58 -3 -134 -32 -151 -58 -4 -7 -17 -18 -27 -24 -11 -6 -24 -19 -30 -30 -6 -10 -18 -24 -27 -31 -22 -17 -126 -172 -134 -200 -6 -21 -3 -23 29 -23 19 0 37 -4 40 -9 3 -5 23 -12 43 -16 110 -20 280 -96 293 -131 5 -12 14 -25 19 -29 19 -11 12 -25 -37 -73 -67 -64 -260 -203 -377 -270 l-41 -23 100 -107 c179 -191 406 -412 458 -446 14 -9 38 -35 54 -57 24 -34 25 -42 13 -54 -14 -14 -102 -41 -174 -52 -87 -14 -328 -7 -435 12 -14 3 -36 7 -50 9 -14 3 -64 16 -113 30 -48 14 -92 26 -97 26 -6 0 1 -21 15 -48 13 -26 34 -69 45 -97 12 -27 27 -63 34 -80 7 -16 19 -43 26 -60 7 -16 18 -43 25 -60 7 -16 17 -42 24 -57 6 -16 15 -38 20 -50 6 -13 13 -34 17 -48 3 -14 15 -43 25 -65 10 -22 32 -85 49 -140 18 -55 35 -107 38 -115 5 -13 22 -81 36 -145 9 -38 15 -80 21 -136 5 -50 3 -60 -18 -84 -21 -25 -25 -26 -47 -14 -13 8 -33 22 -44 32 -11 9 -26 17 -33 17 -7 0 -21 4 -31 9 -9 4 -37 18 -62 29 -60 28 -232 113 -267 132 -103 56 -327 223 -392 293 -43 46 -71 60 -71 35 0 -10 -63 -139 -107 -220 -19 -34 -42 -42 -64 -22 -10 9 -19 20 -19 24 0 4 -19 36 -42 70 -54 82 -106 176 -143 265 -51 119 -54 122 -83 77 -38 -59 -175 -201 -281 -292 -36 -30 -75 -65 -88 -77 -12 -12 -29 -26 -37 -30 -8 -4 -31 -23 -52 -40 -63 -53 -256 -187 -297 -206 -21 -9 -55 -17 -76 -17 -38 0 -40 2 -45 38 -6 34 -2 140 9 282 2 30 7 91 10 135 5 78 8 103 20 215 3 30 8 69 9 85 2 17 7 43 11 59 7 26 6 28 -15 21 -32 -10 -698 -487 -725 -520 -5 -6 -20 -17 -32 -24 -13 -6 -23 -18 -23 -25 0 -18 -46 -26 -64 -12 -29 23 -38 166 -40 599 0 158 -1 287 -2 287 -1 0 -21 -7 -45 -16 -64 -24 -155 -42 -181 -37 -25 5 -53 49 -37 59 5 3 9 11 8 17 -5 25 33 126 66 177 19 30 35 58 35 63 0 4 -65 -25 -144 -65 -79 -40 -161 -80 -182 -89 -21 -10 -55 -24 -74 -32 -19 -8 -62 -25 -95 -37 -33 -13 -64 -26 -70 -30 -24 -15 -202 -64 -225 -62 -8 2 -33 -7 -54 -18 -35 -17 -43 -18 -60 -6 -28 18 -32 51 -9 84 26 39 41 64 51 87 6 12 26 42 46 68 20 26 36 50 36 53 0 3 18 27 40 53 22 26 40 52 40 58 0 6 4 13 9 15 5 2 30 30 55 63 70 91 88 114 119 146 39 42 35 50 -25 43 -112 -12 -147 -8 -173 16 -38 35 -40 57 -11 95 14 18 26 36 26 40 0 3 -21 3 -47 0 -209 -25 -537 -23 -629 4 -17 5 -42 7 -56 4 -18 -3 -32 2 -47 18 l-21 23 93 95 c50 53 103 105 118 116 30 24 90 78 133 120 17 17 48 43 69 58 20 16 37 31 37 35 0 4 -40 7 -90 7 -72 0 -93 3 -107 18 -17 17 -17 19 5 59 12 23 21 42 20 44 -2 1 -109 5 -238 8 -129 3 -251 8 -270 10 -19 3 -55 7 -80 10 -25 3 -69 12 -99 20 -37 11 -60 12 -73 5 -22 -12 -53 2 -68 31 -21 40 -1 68 89 128 47 32 177 123 289 202 242 173 266 189 372 259 45 29 78 57 73 61 -4 4 -60 20 -123 35 -63 15 -124 31 -135 35 -11 4 -58 20 -105 35 -47 15 -101 35 -121 46 -20 10 -46 19 -58 19 -11 0 -28 11 -36 24 -15 22 -15 27 -1 53 9 15 28 37 42 48 15 11 39 31 55 45 15 14 60 47 99 75 38 27 70 53 70 57 0 4 7 8 15 8 9 0 18 7 21 15 4 8 10 15 15 15 15 0 234 161 237 174 2 7 -8 20 -22 29 -14 9 -35 27 -48 39 -13 13 -48 43 -78 68 -29 25 -113 104 -185 175 -122 121 -175 190 -175 230 0 22 28 75 40 75 6 0 29 12 53 27 93 60 449 239 605 304 l33 14 -78 70 c-208 187 -393 386 -393 425 0 10 -9 24 -20 30 -13 7 -20 21 -20 40 0 29 16 38 85 46 126 14 202 18 387 17 l218 0 -65 45 -65 44 0 52 0 52 62 20 c34 11 63 24 65 30 2 5 -11 18 -29 29 -18 10 -58 38 -90 62 -31 24 -61 43 -66 43 -5 0 -12 7 -16 15 -3 8 -12 15 -20 15 -7 0 -16 7 -20 15 -3 8 -10 15 -16 15 -10 0 -24 12 -97 82 -63 60 -58 76 34 108 35 12 77 24 95 26 112 16 141 20 208 28 25 3 61 8 80 11 19 3 52 6 73 6 20 1 37 3 37 5 0 2 -14 19 -31 39 -17 19 -43 52 -57 74 -15 22 -39 54 -54 73 -61 74 -251 346 -271 389 -4 8 -16 28 -27 44 -11 17 -24 39 -30 50 -6 11 -21 38 -35 60 -67 111 -108 218 -97 257 3 11 23 28 46 37 35 15 65 17 206 14 91 -2 181 -5 200 -7 19 -3 58 -7 85 -10 65 -8 81 -11 205 -35 137 -27 136 -27 106 12 -15 19 -26 38 -26 42 0 4 -11 23 -25 41 -14 18 -25 36 -25 41 0 5 -15 32 -34 60 -39 59 -40 61 -136 253 -88 177 -86 172 -105 241 -17 60 -11 93 19 118 13 11 22 11 46 1 23 -10 40 -10 82 1 29 7 60 14 68 15 8 1 42 5 75 10 115 15 538 7 598 -12 26 -8 21 17 -13 64 -16 23 -30 45 -30 48 0 3 -10 20 -23 37 -23 33 -39 59 -57 92 -6 11 -19 34 -30 50 -11 17 -24 39 -30 50 -6 11 -24 43 -40 70 -27 46 -105 202 -197 395 -45 94 -57 122 -79 185 -10 28 -20 55 -24 60 -3 6 -5 19 -4 30 8 69 16 100 26 113 19 22 70 8 151 -41 39 -24 79 -46 87 -50 23 -12 51 -29 102 -64 26 -18 49 -33 51 -33 7 0 285 -189 377 -255 45 -33 89 -64 97 -70 26 -18 71 -58 170 -152 95 -91 113 -104 113 -82 0 5 13 27 28 47 16 20 56 75 90 122 85 116 96 129 184 222 l76 81 0 62 c-1 66 35 174 58 175 6 0 17 6 23 14 7 8 27 18 44 22 18 3 36 8 40 11 13 8 142 7 155 -1 6 -4 27 -4 46 -1 18 4 36 3 40 -3 8 -13 133 -15 141 -2 3 5 18 7 31 4 14 -4 36 -1 49 6 16 8 57 11 129 8 104 -3 106 -3 84 14 -13 10 -34 21 -48 25 -14 3 -41 17 -60 30 -19 12 -42 23 -50 23 -9 0 -31 11 -50 25 -19 14 -38 25 -43 25 -6 0 -63 27 -129 60 -65 33 -123 60 -129 60 -6 0 -23 8 -37 19 -15 10 -45 24 -67 32 -22 7 -51 21 -64 31 -13 10 -28 18 -33 18 -5 0 -35 12 -66 26 -31 15 -82 38 -112 52 -30 13 -63 29 -72 33 -10 5 -24 9 -32 9 -7 0 -19 6 -25 13 -6 8 -30 20 -53 27 -24 8 -50 19 -58 25 -8 6 -31 18 -50 25 -19 7 -66 28 -105 45 -137 63 -165 75 -172 75 -5 0 -35 14 -67 30 -32 17 -66 30 -74 30 -9 0 -23 6 -31 13 -9 8 -32 20 -51 27 -19 7 -75 32 -125 55 -49 23 -108 48 -130 56 -22 7 -47 18 -55 25 -8 6 -26 15 -40 19 -14 3 -47 17 -75 30 -98 46 -170 78 -195 88 -14 5 -32 13 -40 18 -8 5 -22 12 -30 15 -21 9 -140 64 -172 80 -21 12 -188 14 -932 14 l-906 0 0 -5400z"/>
 <path d="M2340 10791 c0 -5 13 -12 30 -16 16 -3 55 -20 86 -36 32 -16 64 -29 73 -29 8 0 22 -6 30 -13 9 -8 32 -20 51 -27 19 -7 76 -32 125 -55 50 -23 106 -47 125 -54 36 -14 61 -25 191 -85 42 -20 82 -36 89 -36 8 0 21 -6 29 -14 9 -7 37 -21 63 -31 27 -10 69 -28 95 -41 25 -13 54 -24 63 -24 10 0 23 -7 30 -15 7 -8 21 -15 31 -15 10 0 21 -4 24 -10 3 -5 14 -10 24 -10 10 0 24 -7 31 -15 7 -8 31 -20 54 -27 22 -6 52 -20 65 -30 13 -10 28 -18 33 -18 11 0 77 -30 255 -116 73 -35 137 -64 142 -64 6 0 27 -11 47 -25 20 -14 43 -25 50 -25 7 0 30 -11 50 -25 20 -14 43 -25 50 -25 7 0 30 -11 50 -25 20 -14 44 -25 53 -25 9 0 36 -14 60 -30 24 -17 50 -30 57 -30 7 0 34 -11 60 -25 26 -14 54 -25 62 -25 13 0 49 -19 127 -68 11 -7 36 -20 55 -28 19 -9 42 -22 50 -29 8 -7 83 -48 165 -90 83 -43 159 -84 170 -91 11 -8 25 -14 33 -14 7 0 30 -11 50 -25 20 -14 43 -25 51 -25 8 0 32 -12 53 -26 21 -15 41 -24 44 -21 4 3 26 -7 50 -23 23 -17 47 -30 52 -30 14 0 76 -33 80 -42 2 -5 8 -8 13 -8 9 0 165 -72 199 -91 8 -5 26 -14 40 -20 14 -6 34 -16 45 -22 19 -10 61 -30 175 -84 30 -15 62 -30 70 -35 8 -4 26 -13 40 -20 77 -35 177 -82 190 -90 8 -4 26 -13 40 -19 14 -6 34 -16 45 -22 72 -38 191 -95 215 -102 14 -4 36 -16 49 -26 13 -11 31 -19 41 -19 10 0 28 -8 41 -18 13 -10 67 -38 119 -61 52 -24 102 -47 110 -52 8 -5 26 -14 40 -20 14 -6 34 -16 45 -22 51 -28 116 -57 126 -57 6 0 22 -9 36 -20 14 -11 32 -20 40 -20 8 0 27 -8 41 -18 15 -10 47 -26 72 -36 25 -10 52 -22 60 -27 8 -5 26 -14 40 -21 86 -39 157 -72 170 -80 8 -4 35 -17 60 -28 25 -12 63 -29 85 -40 22 -10 65 -30 95 -44 30 -14 88 -41 129 -61 40 -19 82 -35 91 -35 10 0 23 -7 30 -15 7 -8 31 -20 54 -27 22 -6 48 -17 56 -23 8 -7 40 -22 70 -33 67 -26 178 -70 205 -82 41 -19 237 -80 248 -78 19 3 98 -12 150 -29 27 -8 51 -12 54 -9 3 3 12 1 19 -4 6 -6 16 -10 20 -9 5 1 16 -1 24 -4 29 -11 168 -48 177 -46 4 1 15 0 23 -3 42 -16 244 -59 256 -54 7 3 16 1 19 -4 3 -5 13 -9 23 -8 9 0 42 -6 72 -12 30 -7 69 -14 86 -15 17 -1 36 -5 42 -9 6 -4 23 -4 37 0 14 3 31 2 38 -4 6 -5 19 -9 27 -9 33 -1 127 -14 164 -24 21 -6 52 -9 70 -8 17 2 37 -1 44 -5 7 -4 29 -5 48 -1 20 3 41 2 48 -4 7 -6 26 -10 42 -9 26 1 103 -4 259 -18 28 -3 87 -7 133 -9 45 -2 87 -7 92 -10 7 -4 10 599 10 1669 l0 1676 -4230 0 c-2570 0 -4230 -4 -4230 -9z m6596 -372 c3 -6 21 -18 38 -26 17 -8 44 -21 61 -30 35 -19 160 -25 222 -11 23 6 55 22 70 35 25 24 27 24 40 7 7 -10 13 -21 13 -25 0 -4 15 -17 34 -28 54 -34 135 -17 174 35 l20 28 73 -48 c109 -72 351 -248 346 -252 -6 -7 -172 48 -188 62 -8 8 -21 14 -27 14 -6 0 -19 11 -28 25 -11 17 -25 25 -45 25 -15 0 -31 5 -34 10 -9 14 -28 12 -51 -4 -18 -14 -18 -15 10 -45 17 -17 34 -31 40 -31 12 0 66 -51 66 -62 0 -5 60 -68 133 -141 72 -72 121 -124 107 -114 -13 9 -31 17 -40 17 -8 0 -33 14 -54 30 -22 17 -43 30 -48 30 -9 0 -177 127 -225 171 -18 16 -35 29 -37 29 -3 0 -26 22 -53 50 -33 35 -52 47 -61 41 -10 -6 -2 -22 36 -67 27 -32 69 -77 94 -99 98 -87 117 -103 125 -106 5 -2 30 -32 57 -67 27 -35 55 -66 62 -69 8 -3 14 -11 14 -17 0 -7 11 -23 25 -36 14 -13 24 -25 22 -27 -11 -11 -230 126 -294 183 -17 16 -59 53 -92 83 -34 29 -61 59 -61 65 0 7 -15 26 -33 44 -24 23 -38 30 -55 25 -12 -3 -28 -1 -35 5 -7 6 -22 11 -32 10 -11 -1 -59 2 -107 6 -49 4 -88 4 -88 -1 0 -8 13 -17 125 -80 33 -19 101 -74 150 -124 50 -49 96 -89 103 -89 6 0 12 -4 12 -10 0 -5 -2 -10 -5 -10 -6 0 -94 39 -125 56 -14 7 -45 24 -70 37 -25 12 -77 42 -117 65 -39 23 -76 42 -81 42 -5 0 -17 9 -27 20 -10 11 -27 22 -38 26 -11 3 -46 26 -78 51 -32 24 -63 42 -68 39 -9 -6 158 -186 172 -186 4 0 19 -13 34 -28 16 -16 57 -49 93 -74 36 -26 73 -61 83 -78 11 -17 46 -60 79 -96 33 -35 54 -64 47 -64 -12 0 -29 10 -207 128 -51 34 -95 62 -98 62 -3 0 -31 25 -62 55 -31 30 -61 55 -66 55 -5 0 -35 29 -68 65 -33 36 -65 65 -72 65 -15 0 -19 -49 -6 -65 5 -6 8 -36 5 -65 -3 -43 0 -61 17 -88 12 -20 26 -31 34 -28 8 3 43 -24 84 -64 39 -39 76 -70 82 -70 5 0 23 -11 40 -25 16 -14 35 -25 42 -25 7 0 27 -7 44 -16 26 -12 32 -22 32 -46 0 -34 7 -37 -80 32 -75 60 -170 111 -170 91 0 -10 51 -70 113 -131 26 -27 47 -53 47 -59 0 -6 5 -11 12 -11 15 0 58 -40 58 -54 0 -16 89 -116 103 -116 7 0 43 -34 80 -75 38 -41 66 -75 64 -75 -3 0 -34 13 -69 29 -107 48 -161 89 -310 239 -128 127 -137 137 -171 190 -23 36 -30 42 -42 32 -28 -24 -10 -72 58 -154 36 -43 38 -48 16 -41 -35 10 -69 34 -96 66 -42 50 -103 146 -103 163 0 22 -12 20 -44 -5 -15 -12 -45 -23 -66 -26 -22 -3 -40 -10 -40 -15 0 -11 95 -104 130 -127 14 -9 33 -26 43 -38 10 -13 22 -23 26 -23 15 0 111 -96 111 -111 0 -9 -9 -24 -19 -33 -22 -20 -39 -14 -106 39 -60 48 -71 52 -46 16 22 -30 22 -33 7 -56 -23 -35 -45 -31 -91 14 -40 40 -57 59 -160 183 -31 38 -65 73 -76 78 -10 6 -19 16 -19 23 0 15 -77 93 -85 85 -10 -9 28 -106 81 -211 28 -55 30 -70 8 -88 -35 -29 -52 -21 -87 44 -19 34 -45 90 -58 125 -13 34 -27 62 -30 62 -10 0 -18 -42 -14 -74 2 -16 -4 -40 -13 -54 -14 -21 -17 -49 -16 -147 2 -187 4 -231 14 -265 5 -17 5 -40 1 -52 -6 -16 -11 -6 -26 48 -57 213 -176 527 -216 568 -5 6 -9 18 -9 28 0 50 -45 -10 -55 -74 -28 -169 -32 -215 -30 -298 3 -90 7 -130 19 -225 3 -22 6 -51 6 -64 0 -12 3 -28 6 -33 7 -12 16 -103 9 -97 -2 3 -23 52 -45 109 -23 58 -46 109 -51 115 -5 5 -9 19 -9 31 0 13 -5 26 -11 29 -6 4 -7 19 -4 35 4 17 2 31 -5 35 -7 4 -9 21 -5 45 4 21 2 40 -3 43 -11 8 -35 -84 -27 -105 4 -9 1 -19 -5 -23 -7 -4 -8 -24 -4 -54 4 -31 2 -51 -5 -55 -7 -4 -11 0 -11 12 0 10 -3 22 -7 26 -4 3 -8 26 -9 49 -2 23 -6 67 -9 97 -10 92 -5 160 17 217 11 30 18 55 16 56 -10 6 -76 30 -95 34 -17 4 -23 1 -23 -13 0 -9 -7 -25 -16 -35 -8 -9 -16 -28 -18 -41 -1 -13 -5 -28 -8 -33 -13 -23 -50 -157 -44 -162 3 -3 2 -11 -3 -17 -10 -11 -51 -281 -51 -331 0 -48 -11 -21 -15 39 -2 31 -7 61 -11 68 -18 29 -23 263 -6 294 9 18 5 25 -39 63 -27 23 -49 49 -49 57 0 7 -4 14 -8 14 -5 0 -22 19 -39 43 -17 23 -41 53 -54 67 -13 14 -33 43 -44 64 -11 20 -28 44 -37 53 -10 9 -18 21 -18 28 0 6 -14 33 -31 61 -18 27 -35 60 -39 74 -10 37 -34 31 -44 -11 -7 -30 -4 -46 16 -90 19 -41 23 -61 16 -78 -5 -13 -6 -32 -2 -43 3 -10 7 -35 9 -56 1 -20 6 -46 10 -57 4 -11 -7 1 -24 27 -17 27 -31 52 -31 56 0 5 -9 17 -20 27 -11 10 -20 24 -20 32 0 8 -9 33 -20 56 -28 57 -35 108 -20 152 7 20 10 39 7 42 -16 15 -79 -83 -112 -174 -8 -24 -22 -61 -30 -83 -11 -29 -14 -73 -12 -165 1 -69 1 -125 0 -125 -8 0 -26 50 -48 135 -22 87 -24 104 -14 164 6 36 12 75 13 86 9 61 57 149 114 209 44 47 122 96 152 96 5 0 27 -18 47 -41 53 -59 99 -80 166 -74 53 4 55 3 62 -23 13 -54 88 -124 115 -107 5 3 11 1 15 -5 8 -14 150 -7 168 9 13 10 17 9 25 -6 10 -17 12 -16 36 6 14 14 26 28 26 32 0 9 129 138 156 157 11 6 30 17 44 22 14 6 32 14 41 19 9 5 34 7 56 4 34 -4 43 -2 56 17 15 21 15 21 22 -18 9 -56 63 -142 103 -165 42 -25 124 -31 168 -12 33 14 35 13 44 -8 10 -25 55 -69 85 -84 11 -6 53 -9 92 -7 69 3 72 2 70 -19 -3 -36 24 -26 49 18 13 22 23 52 24 67 l0 27 38 -41 c55 -58 71 -46 30 22 -18 30 -42 75 -53 100 -10 25 -27 57 -37 72 -10 14 -18 32 -18 40 0 8 -11 36 -23 64 -61 126 -71 175 -36 165 8 -2 23 -5 34 -6 11 -1 28 -6 38 -10 58 -24 215 33 252 92 22 35 30 39 41 22z"/>
 <path d="M8955 10270 c-3 -5 1 -13 10 -16 22 -9 29 1 11 15 -10 8 -16 9 -21 1z"/>
 <path d="M7160 9895 c0 -8 5 -15 10 -15 6 0 10 7 10 15 0 8 -4 15 -10 15 -5 0 -10 -7 -10 -15z"/>
 <path d="M7270 9713 c0 -7 31 -49 80 -107 31 -37 98 -106 103 -106 7 0 61 139 56 143 -15 11 -153 56 -160 51 -5 -2 -22 2 -38 11 -34 17 -41 18 -41 8z"/>
 <path d="M3684 9496 c-43 -19 -48 -31 -49 -107 0 -65 1 -66 29 -75 26 -8 32 -18 48 -74 34 -120 42 -457 13 -600 -14 -70 -17 -90 -12 -90 3 0 52 11 109 26 57 14 116 27 132 29 15 2 37 7 48 11 11 3 30 7 41 9 12 2 41 6 65 9 24 4 46 7 50 7 27 4 50 -6 69 -30 l22 -28 -19 -54 c-22 -61 -93 -203 -133 -266 -15 -24 -27 -47 -27 -52 0 -5 -7 -14 -15 -21 -19 -16 -10 -30 18 -29 48 1 284 -60 336 -87 14 -8 32 -14 39 -14 7 0 20 -4 30 -9 9 -5 37 -19 62 -31 25 -13 51 -28 58 -35 13 -12 7 -45 -9 -45 -5 0 -38 -39 -74 -87 -36 -49 -73 -98 -83 -109 -9 -12 -33 -41 -52 -65 -63 -79 -227 -234 -306 -291 -50 -36 -45 -45 28 -54 24 -3 47 -9 53 -13 5 -5 21 -11 35 -14 43 -9 132 -46 150 -62 9 -8 19 -15 23 -15 13 0 57 -48 57 -63 0 -26 -48 -121 -105 -207 -17 -25 -34 -53 -40 -62 -9 -14 -178 -234 -203 -263 -5 -6 -36 -43 -71 -83 l-62 -72 123 -61 c68 -33 144 -76 171 -96 l47 -35 0 90 c0 176 17 214 116 262 24 12 46 26 50 31 3 5 12 9 21 9 9 0 38 16 64 35 27 19 51 35 54 35 10 0 135 94 135 102 0 4 6 8 13 8 8 0 22 9 32 20 10 11 22 20 26 20 5 0 46 21 91 47 80 45 86 47 159 46 55 0 86 -6 116 -22 71 -36 148 -149 141 -208 -6 -50 -57 -143 -83 -153 -22 -8 -25 -15 -25 -63 0 -70 -15 -112 -46 -126 -35 -15 -114 -14 -144 4 -71 41 -70 41 -111 17 -21 -12 -44 -22 -52 -22 -8 0 -26 -9 -40 -20 -14 -11 -30 -20 -37 -20 -6 0 -36 -12 -66 -27 -45 -22 -54 -31 -54 -53 0 -15 3 -30 7 -33 3 -4 7 -17 9 -30 2 -21 15 -54 61 -157 41 -89 62 -164 51 -177 -26 -32 -59 -7 -72 54 -4 17 -14 37 -22 44 -8 6 -14 19 -14 28 0 9 -14 45 -31 80 -17 34 -32 76 -34 91 -2 16 -9 48 -15 71 -7 23 -9 56 -6 73 6 26 16 35 69 60 34 15 69 32 77 37 8 5 22 12 30 14 8 3 52 24 98 47 89 45 102 45 159 -5 13 -11 40 -21 63 -22 46 -3 58 11 55 60 -1 24 -6 30 -26 30 -20 0 -24 5 -24 29 0 24 6 31 32 40 49 17 99 63 113 105 11 34 10 41 -17 92 -36 67 -80 91 -168 92 -52 1 -69 -4 -130 -38 -38 -21 -110 -69 -160 -105 -135 -100 -214 -151 -300 -193 -88 -43 -90 -47 -90 -220 0 -121 3 -154 15 -171 41 -55 51 -117 22 -138 -28 -21 -50 -62 -54 -99 -3 -30 -7 -34 -35 -37 -20 -2 -39 -12 -48 -25 -34 -49 -84 -105 -153 -171 -50 -47 -69 -72 -60 -76 7 -4 45 -15 83 -24 39 -10 84 -24 100 -31 17 -7 50 -18 74 -25 24 -6 51 -15 60 -20 9 -5 46 -22 83 -39 38 -16 83 -41 101 -55 19 -15 36 -26 39 -26 13 0 68 -59 68 -73 0 -18 -42 -53 -73 -62 -12 -4 -35 -12 -52 -20 -58 -25 -80 -34 -120 -45 -22 -6 -47 -14 -55 -17 -19 -8 -29 -10 -60 -12 -22 -1 -23 -3 -9 -14 9 -7 21 -29 27 -48 9 -34 7 -38 -32 -77 -56 -57 -130 -111 -199 -147 -31 -16 -57 -32 -57 -35 0 -3 53 -18 118 -33 231 -56 390 -121 518 -212 65 -47 96 -81 133 -148 20 -35 20 -39 5 -62 -9 -14 -20 -22 -26 -19 -5 3 -17 0 -26 -8 -9 -8 -53 -31 -97 -52 -44 -21 -109 -51 -145 -68 -36 -17 -73 -35 -82 -39 -10 -5 -22 -9 -28 -9 -5 0 -33 -11 -62 -24 -29 -13 -65 -26 -80 -30 -39 -9 -35 -26 6 -26 86 0 246 -150 246 -229 0 -21 -30 -43 -52 -39 -6 2 -28 28 -48 58 -70 107 -179 150 -280 113 -8 -3 -22 -7 -31 -8 -9 -1 -29 -11 -44 -23 -15 -12 -33 -22 -41 -22 -7 0 -32 -20 -57 -44 -76 -77 -95 -176 -56 -296 73 -221 158 -294 282 -242 35 15 70 15 84 1 7 -7 22 4 49 38 39 50 124 123 142 123 6 0 31 16 56 35 26 19 52 35 59 35 7 0 18 5 23 10 7 7 16 -8 29 -47 22 -68 25 -84 25 -141 1 -45 13 -54 30 -23 10 20 153 141 165 141 4 0 30 15 58 34 29 19 66 40 82 48 17 7 36 18 43 25 7 7 22 13 33 13 10 0 22 1 26 3 7 2 21 -41 28 -88 3 -16 7 -43 11 -58 31 -145 35 -346 10 -529 -7 -46 -49 -182 -64 -205 -13 -21 -13 -23 4 -25 37 -3 69 -7 99 -12 17 -3 44 -7 60 -10 17 -3 86 -17 153 -31 68 -15 125 -25 127 -23 1 2 32 49 68 104 84 131 188 241 264 280 52 26 68 29 153 29 85 0 101 -3 153 -29 95 -49 192 -169 231 -288 10 -33 33 -18 64 40 41 78 72 187 68 242 -2 25 1 50 6 57 6 7 5 20 -2 33 -6 11 -8 29 -5 40 9 27 -28 173 -64 253 -36 80 -122 207 -163 242 -15 13 -28 28 -28 34 0 6 -6 11 -14 11 -7 0 -30 20 -50 45 -21 25 -43 45 -51 45 -7 0 -15 6 -18 13 -8 22 -149 114 -254 166 -104 52 -199 85 -279 96 -27 4 -55 12 -61 17 -18 14 -16 63 2 82 29 29 252 88 303 80 18 -3 32 -2 32 1 0 10 -43 44 -57 45 -6 0 -13 4 -15 9 -1 5 -35 35 -73 67 -126 105 -256 257 -307 358 -11 23 -25 47 -31 54 -21 27 -83 239 -78 269 1 6 -3 14 -9 18 -7 4 -8 27 -4 65 4 38 3 60 -5 64 -14 9 -15 73 -1 81 6 3 10 13 10 21 0 9 12 31 26 50 15 19 24 37 21 40 -3 4 10 36 29 72 19 37 34 73 34 81 0 8 12 39 26 69 14 30 27 64 28 76 2 11 6 28 9 36 17 42 48 160 46 171 -1 8 1 21 4 29 13 31 31 167 31 237 1 39 4 75 9 79 9 9 9 198 0 208 -4 4 -8 39 -8 79 -1 40 -8 101 -15 137 -7 36 -12 72 -13 80 0 8 -4 20 -9 27 -5 7 -7 17 -3 23 12 20 -102 397 -131 430 -7 8 -16 29 -19 45 -4 17 -17 50 -29 75 -172 353 -244 484 -375 679 -42 63 -81 121 -86 130 -41 63 -69 101 -76 101 -5 0 -9 6 -9 13 0 7 -16 31 -35 53 -19 21 -35 45 -35 52 0 7 -16 28 -35 48 -19 19 -35 38 -35 42 0 4 -20 27 -44 52 -174 180 -284 290 -290 290 -3 0 -23 17 -44 38 -20 20 -59 51 -85 69 -27 18 -57 48 -67 68 -17 34 -17 38 -2 65 11 18 30 32 57 40 22 6 49 17 60 24 11 7 43 16 70 21 28 4 54 9 59 12 4 3 34 7 65 10 31 2 63 6 71 10 8 3 71 8 140 10 69 3 128 8 132 11 10 11 -31 88 -72 134 -34 38 -65 58 -150 97 -24 11 -373 11 -510 0 -30 -3 -65 -1 -77 3 -12 4 -71 10 -130 13 -82 4 -116 2 -139 -9z m599 -5594 c15 -14 27 -34 27 -43 0 -10 5 -21 10 -24 12 -8 11 -104 -2 -111 -4 -3 -8 -13 -8 -22 0 -9 -16 -39 -36 -65 -39 -54 -98 -87 -154 -87 -48 0 -108 37 -134 83 -20 36 -20 38 -3 51 20 15 57 10 57 -8 0 -17 43 -54 65 -56 41 -5 63 1 86 19 l24 20 -43 37 c-50 42 -66 74 -63 124 3 54 20 87 54 104 40 20 83 12 120 -22z m1249 -90 c75 -47 125 -138 133 -245 7 -101 -28 -217 -83 -273 -18 -19 -79 -45 -139 -60 -9 -2 -8 -11 4 -33 17 -28 17 -30 -1 -50 -23 -25 -53 -27 -78 -4 -34 30 -31 4 5 -56 39 -62 45 -89 25 -109 -45 -45 -117 50 -172 228 -31 101 -40 154 -40 235 -1 172 52 301 145 351 82 45 146 50 201 16z"/>
 <path d="M4187 3859 c-25 -14 -21 -57 9 -96 38 -50 64 -40 64 23 0 51 -40 91 -73 73z"/>
 <path d="M5433 3480 c-30 -12 -43 -40 -39 -85 7 -89 99 -99 139 -16 17 35 18 41 3 68 -21 42 -54 53 -103 33z"/>
 <path d="M5326 3186 c3 -9 11 -16 16 -16 13 0 5 23 -10 28 -7 2 -10 -2 -6 -12z"/>
 <path d="M2150 9390 c0 -7 3 -10 7 -7 3 4 3 10 0 14 -4 3 -7 0 -7 -7z"/>
 <path d="M4820 9371 c5 -11 15 -23 20 -26 6 -3 10 -14 10 -24 0 -9 13 -38 30 -64 l29 -46 -32 -32 -31 -32 -143 6 c-78 4 -145 3 -147 -2 -3 -5 -17 -6 -31 -4 -23 5 -180 -20 -215 -34 -17 -7 -28 -9 -51 -11 -8 -1 -23 -8 -33 -15 -16 -12 -15 -15 21 -39 21 -14 68 -53 105 -87 36 -33 70 -61 75 -61 12 0 113 -103 113 -116 0 -5 27 -35 60 -67 33 -31 60 -59 60 -62 0 -4 17 -25 39 -48 21 -23 50 -55 64 -72 14 -16 39 -45 55 -63 l29 -34 84 7 c46 4 98 9 114 11 17 3 46 6 65 8 19 2 40 4 45 6 6 1 17 2 25 1 8 -1 58 8 110 19 52 12 104 23 115 24 11 2 20 4 20 5 0 1 15 4 32 7 18 2 53 13 77 25 25 11 55 22 68 23 13 2 34 9 48 16 31 17 123 51 265 96 61 19 118 40 128 45 10 5 22 7 27 4 6 -4 19 -3 31 0 26 8 11 28 -34 45 -31 12 -242 112 -282 133 -79 42 -299 147 -309 147 -7 0 -27 11 -46 25 -19 14 -41 25 -50 25 -9 0 -31 11 -50 25 -19 14 -41 25 -50 25 -9 0 -31 11 -50 25 -19 14 -41 25 -50 25 -10 0 -37 13 -61 30 -24 16 -51 30 -60 30 -9 0 -27 8 -40 18 -37 28 -151 88 -182 96 -26 6 -27 5 -17 -13z"/>
 <path d="M6312 8624 c44 -61 83 -137 104 -201 10 -29 31 -67 48 -84 16 -17 51 -67 77 -112 26 -45 59 -101 73 -123 14 -23 26 -48 26 -56 0 -9 9 -27 20 -41 11 -14 20 -31 20 -37 0 -7 13 -38 29 -69 75 -146 93 -294 41 -333 -36 -26 -53 -18 -159 85 -50 48 -96 87 -101 87 -5 0 -24 14 -42 30 -18 17 -52 40 -75 51 -24 12 -43 24 -43 28 0 4 -46 29 -102 56 -57 28 -109 55 -116 62 -6 6 -22 15 -35 19 -12 3 -30 13 -39 21 -9 8 -41 16 -70 18 -51 3 -55 1 -98 -40 -50 -47 -220 -165 -239 -165 -6 0 -28 -8 -49 -19 -20 -10 -82 -33 -137 -51 -55 -18 -107 -35 -115 -38 -8 -3 -21 -4 -27 -3 -19 3 -17 -2 37 -108 28 -54 50 -101 50 -105 0 -4 11 -31 24 -59 13 -29 41 -88 61 -131 20 -44 38 -95 40 -113 2 -19 8 -39 13 -46 6 -7 13 -29 17 -50 4 -20 11 -40 16 -43 5 -3 7 -9 4 -13 -2 -5 6 -44 18 -88 13 -43 22 -84 20 -90 -2 -6 0 -14 6 -17 6 -4 8 -13 4 -21 -3 -8 -2 -23 2 -32 4 -10 9 -56 12 -103 2 -46 8 -89 12 -95 11 -13 11 -347 0 -360 -4 -6 -10 -47 -12 -90 -3 -44 -8 -88 -12 -98 -4 -10 -5 -20 -3 -22 3 -3 -3 -37 -13 -77 -10 -40 -16 -74 -14 -76 2 -2 41 8 87 21 151 46 222 51 290 21 39 -17 46 -30 73 -127 21 -77 102 -243 154 -318 37 -51 107 -119 124 -119 9 0 28 11 44 24 15 13 37 26 49 30 11 3 30 16 40 29 21 23 94 186 94 209 0 7 7 22 15 32 8 10 22 42 31 70 9 28 25 69 35 92 10 22 19 47 19 55 0 8 9 32 21 53 11 22 22 49 23 60 4 25 21 72 40 106 7 14 21 50 31 80 10 30 22 60 27 66 5 7 10 25 12 42 3 16 16 55 31 87 14 32 24 63 21 70 -2 7 2 22 10 33 13 19 204 579 209 612 1 8 6 24 10 35 34 85 45 118 40 123 -2 3 -1 10 3 16 16 20 55 137 48 143 -3 3 -2 11 3 17 14 17 62 148 56 154 -3 3 -1 10 4 16 4 6 20 47 35 91 15 44 32 94 37 110 73 210 94 263 110 281 31 33 59 15 -271 172 -63 31 -122 59 -130 64 -8 4 -26 13 -40 20 -77 35 -177 82 -190 90 -8 4 -31 15 -50 24 -19 9 -42 20 -50 25 -8 5 -26 14 -40 20 -14 6 -38 18 -55 27 -16 8 -37 19 -45 23 -69 36 -163 79 -173 79 -7 0 -23 9 -37 20 -44 35 -53 22 -18 -26z"/>
 <path d="M6024 8626 c-50 -13 -109 -33 -131 -45 -22 -11 -43 -18 -45 -15 -5 4 -119 -38 -193 -71 -16 -7 -57 -21 -90 -30 -33 -9 -69 -20 -80 -25 -27 -11 -78 -24 -89 -21 -4 1 -14 -3 -22 -10 -7 -6 -18 -8 -23 -5 -6 4 -39 0 -75 -8 -35 -9 -95 -18 -132 -22 -38 -4 -75 -11 -81 -16 -7 -6 -32 -7 -57 -4 -29 5 -47 3 -51 -4 -4 -6 -14 -9 -22 -6 -37 15 -27 -12 40 -112 80 -119 157 -240 157 -249 0 -2 9 -18 21 -34 11 -17 34 -55 51 -87 17 -31 34 -61 38 -65 7 -8 69 4 110 20 8 3 27 7 43 9 15 2 38 10 50 18 12 8 42 20 66 26 25 6 61 23 80 36 20 13 41 24 47 24 16 0 154 99 154 110 0 6 5 10 12 10 7 0 26 14 43 30 28 27 35 29 59 21 14 -6 37 -11 49 -11 82 0 162 -26 312 -103 122 -63 169 -92 247 -149 86 -64 115 -87 138 -110 34 -34 44 -35 34 -5 -12 39 -92 218 -119 267 -8 14 -19 36 -26 50 -36 79 -66 133 -76 137 -7 3 -13 11 -13 19 0 7 -15 29 -34 48 -32 31 -96 150 -96 177 0 18 -59 120 -92 159 -30 34 -83 70 -103 70 -5 -1 -51 -12 -101 -24z"/>
 <path d="M7462 8057 c-6 -7 -18 -39 -26 -71 -9 -32 -21 -64 -27 -72 -6 -7 -12 -30 -14 -49 -2 -20 -8 -42 -14 -48 -5 -7 -32 -82 -60 -167 -28 -85 -56 -168 -62 -185 -42 -118 -192 -574 -195 -590 -1 -11 -14 -48 -28 -82 -14 -35 -25 -66 -24 -70 0 -5 -3 -19 -9 -33 -31 -75 -53 -143 -49 -148 3 -2 -1 -17 -9 -33 -9 -16 -38 -93 -65 -171 -28 -79 -57 -157 -65 -175 -8 -17 -18 -46 -22 -65 -3 -18 -14 -46 -24 -63 -9 -16 -20 -46 -24 -65 -4 -19 -18 -57 -31 -85 -13 -27 -40 -93 -60 -145 -19 -52 -44 -113 -55 -136 -10 -22 -19 -45 -19 -50 0 -6 -13 -37 -30 -69 -16 -32 -30 -64 -30 -71 0 -14 -64 -67 -93 -77 -26 -10 -16 -30 21 -42 17 -6 44 -23 60 -38 15 -15 33 -27 39 -27 6 0 25 -24 41 -54 35 -61 57 -71 131 -60 57 8 79 26 87 73 4 20 13 49 22 66 8 16 16 41 17 55 1 14 5 32 8 40 16 44 49 162 51 184 1 14 6 29 9 33 4 3 7 14 7 23 0 10 9 45 20 80 11 34 18 66 15 70 -3 5 -1 11 5 15 5 3 10 14 10 24 0 10 9 47 20 82 11 35 18 69 16 76 -3 7 -1 15 3 18 5 2 12 22 15 42 4 21 14 59 22 84 8 26 16 62 18 81 2 19 5 39 8 44 3 5 9 25 13 44 4 19 14 56 22 81 8 25 13 50 12 55 -1 5 0 16 3 24 12 31 48 179 47 187 -1 4 0 15 4 23 3 8 19 74 36 145 18 72 41 165 51 207 11 42 20 80 19 85 -1 4 0 15 3 23 10 25 40 153 43 180 2 14 4 27 6 30 1 3 3 10 4 15 5 28 18 77 37 137 11 37 17 71 14 77 -4 5 -2 12 4 16 5 3 10 16 10 28 0 13 9 49 20 81 12 32 19 61 16 64 -3 3 -1 11 6 19 6 7 8 16 5 19 -3 3 5 36 18 73 20 55 23 83 21 154 -3 93 -7 105 -24 84z"/>
 <path d="M5919 5845 c-3 -2 -29 -5 -57 -6 -29 -1 -55 -6 -58 -11 -3 -5 -14 -6 -24 -3 -10 3 -57 -8 -106 -25 -48 -16 -95 -30 -105 -30 -10 0 -20 -10 -24 -22 -3 -13 -10 -32 -15 -43 -17 -37 -62 -160 -67 -185 -3 -14 -10 -31 -16 -38 -19 -25 1 -22 61 8 33 16 64 30 67 30 4 0 18 9 32 20 14 11 35 20 47 20 12 0 38 8 58 18 50 26 92 9 114 -45 8 -21 24 -56 34 -79 11 -23 20 -46 20 -53 0 -38 108 -210 167 -265 82 -76 118 -106 129 -106 6 0 29 -12 50 -26 21 -15 51 -27 66 -28 14 -1 30 -5 34 -9 11 -11 62 -8 70 4 3 6 16 8 28 5 30 -7 101 70 110 119 7 38 -15 85 -40 85 -8 0 -14 4 -14 10 0 12 -82 60 -104 60 -10 0 -30 7 -44 15 -15 8 -48 23 -74 35 -27 11 -48 27 -48 34 0 7 -9 20 -19 27 -25 18 -151 207 -151 226 0 8 -7 27 -15 41 -19 35 -65 159 -72 195 -5 24 -21 35 -34 22z"/>
 <path d="M3876 4037 c-11 -8 -17 -19 -15 -26 3 -8 13 -3 28 13 26 28 17 35 -13 13z"/>
 <path d="M1393 2883 c4 -3 10 -3 14 0 3 4 0 7 -7 7 -7 0 -10 -3 -7 -7z"/>
 <path d="M5943 1553 c4 -3 10 -3 14 0 3 4 0 7 -7 7 -7 0 -10 -3 -7 -7z"/>
 <path d="M5563 463 c4 -3 10 -3 14 0 3 4 0 7 -7 7 -7 0 -10 -3 -7 -7z"/>
 </g>
<g id="layer103" fill="#d1d1d1" stroke="none">
 <path d="M0 5400 l0 -5400 5400 0 5400 0 -2 3618 -3 3617 -110 8 c-339 24 -768 66 -845 83 -19 5 -44 9 -55 10 -58 7 -324 56 -420 77 -234 54 -332 75 -370 80 -33 5 -169 36 -225 51 -107 30 -349 119 -510 188 -120 51 -510 229 -612 278 l-78 38 -1 -57 c0 -65 -8 -110 -43 -241 -61 -231 -88 -341 -107 -430 -11 -52 -23 -102 -26 -110 -5 -12 -35 -131 -58 -235 -5 -24 -48 -202 -81 -340 -13 -55 -37 -156 -53 -225 -16 -69 -41 -170 -55 -225 -13 -55 -36 -147 -50 -205 -15 -58 -28 -112 -31 -120 -2 -8 -14 -53 -25 -100 -11 -47 -23 -92 -25 -100 -3 -8 -14 -53 -25 -100 -12 -47 -24 -92 -27 -100 -3 -8 -17 -53 -29 -100 -52 -193 -68 -241 -93 -270 -29 -35 -76 -49 -159 -50 -44 0 -54 -3 -63 -22 -6 -13 -35 -39 -65 -58 -29 -19 -54 -39 -54 -43 0 -4 -21 -17 -47 -29 -70 -31 -168 -22 -265 24 -137 66 -249 174 -344 333 -29 49 -94 204 -94 224 0 6 -7 11 -15 11 -19 0 -265 -114 -319 -148 l-39 -24 6 -82 c20 -277 155 -510 423 -727 86 -71 214 -159 229 -159 17 0 45 -34 45 -53 0 -9 -9 -26 -20 -37 -17 -17 -33 -20 -117 -20 -113 0 -203 -9 -203 -21 0 -4 17 -13 38 -20 128 -41 326 -163 459 -281 271 -240 409 -566 363 -855 -14 -85 -62 -209 -107 -274 -34 -51 -35 -53 -19 -80 24 -41 20 -96 -10 -136 -21 -28 -31 -33 -68 -33 -31 0 -51 7 -72 25 -26 22 -29 31 -28 80 0 30 5 60 12 67 15 15 16 54 2 63 -5 3 -25 39 -44 79 -61 134 -148 204 -261 214 -86 6 -151 -25 -232 -112 -63 -67 -155 -197 -157 -223 -1 -11 16 -20 54 -29 96 -25 213 -65 268 -92 51 -25 102 -77 102 -104 0 -31 -118 -127 -318 -262 l-142 -95 237 -239 c131 -131 276 -273 322 -315 91 -82 96 -98 39 -121 -18 -8 -80 -22 -137 -31 -177 -30 -425 -11 -629 48 -45 13 -82 23 -82 21 0 -1 21 -47 46 -101 62 -132 193 -463 239 -598 51 -156 85 -297 92 -391 5 -77 5 -82 -18 -97 -31 -22 -45 -21 -69 3 -10 10 -63 38 -117 61 -273 114 -501 258 -689 432 l-60 55 -39 -81 c-73 -153 -104 -194 -140 -181 -32 13 -224 366 -249 457 -5 20 -13 14 -78 -58 -244 -273 -655 -601 -774 -621 -61 -9 -74 9 -74 104 0 100 26 442 46 605 8 71 14 131 11 133 -4 5 -569 -398 -699 -498 -43 -34 -83 -70 -89 -80 -12 -22 -61 -24 -78 -4 -14 17 -34 517 -29 729 3 128 1 147 -12 144 -183 -53 -229 -57 -249 -19 -14 27 13 123 60 210 21 41 39 75 39 78 0 2 -49 -21 -110 -51 -264 -132 -547 -244 -661 -261 -24 -3 -54 -13 -66 -20 -44 -28 -83 -11 -83 35 0 52 186 326 373 549 38 46 67 85 66 86 -2 2 -41 -1 -87 -6 -102 -12 -127 -6 -152 35 -25 41 -25 47 5 91 l26 38 -28 -6 c-48 -10 -293 -26 -393 -26 -52 1 -126 5 -165 11 -38 5 -97 12 -130 15 -56 6 -85 22 -85 47 0 16 121 136 284 281 l158 141 -83 3 c-90 3 -119 17 -119 57 0 12 9 30 20 40 11 10 20 22 20 27 0 4 -91 8 -203 8 -193 0 -408 17 -487 40 -19 5 -55 9 -79 8 -57 -3 -85 27 -70 72 10 28 202 169 679 500 74 51 139 97 144 101 5 4 -11 13 -35 19 -173 44 -347 97 -419 127 -47 19 -95 39 -107 44 -17 6 -23 17 -23 38 0 24 12 40 63 84 69 60 199 158 385 291 67 48 122 89 122 90 0 2 -42 39 -93 82 -138 118 -356 333 -388 383 -45 71 -35 121 33 166 54 36 462 245 568 291 47 20 86 38 88 39 1 1 -30 33 -70 70 -159 149 -364 363 -383 401 -11 21 -28 49 -39 61 -29 34 -10 68 41 76 113 18 308 29 462 25 126 -3 169 -1 156 6 -10 6 -40 28 -66 49 -46 35 -49 41 -49 82 0 50 3 52 83 80 l58 20 -143 102 c-162 116 -246 187 -258 217 -11 29 6 56 35 56 13 0 26 4 29 9 4 5 28 14 56 20 48 10 319 47 393 53 20 2 38 7 40 10 1 4 -46 69 -104 145 -249 325 -471 690 -486 800 -4 32 -1 42 22 63 25 23 34 25 163 28 157 4 376 -16 557 -52 66 -13 121 -23 123 -21 1 1 -24 44 -56 96 -121 192 -264 467 -301 576 -26 77 -26 114 -2 144 17 22 21 22 57 10 29 -9 46 -10 67 -2 93 36 437 52 650 30 59 -6 111 -9 116 -7 5 2 -45 91 -111 198 -120 196 -324 594 -393 769 -33 84 -36 99 -30 150 8 67 18 81 57 81 41 0 114 -39 309 -163 368 -234 541 -361 687 -501 l108 -104 24 36 c79 117 213 286 287 363 78 81 85 91 80 121 -8 53 10 145 34 179 37 52 109 79 209 78 47 0 108 -4 135 -10 107 -20 135 -22 151 -8 11 9 61 14 166 17 l149 5 -208 103 c-114 57 -280 137 -368 178 -88 41 -200 93 -250 116 -49 23 -232 105 -405 182 -173 76 -328 145 -345 153 -16 7 -68 30 -115 50 -47 21 -103 45 -125 55 -22 10 -83 37 -135 60 -52 23 -113 50 -135 60 -22 10 -105 47 -185 83 -80 36 -184 83 -232 106 l-87 41 -895 0 -896 0 0 -5400z"/>
 <path d="M2366 10791 c5 -4 81 -40 169 -79 629 -277 785 -346 820 -362 22 -10 137 -62 255 -115 118 -54 226 -103 240 -111 14 -7 57 -27 95 -45 39 -17 189 -91 335 -164 146 -72 282 -134 302 -138 20 -3 63 -23 95 -45 133 -90 739 -398 1538 -782 66 -31 206 -99 310 -150 105 -51 235 -114 290 -140 55 -26 203 -98 329 -159 126 -61 230 -111 231 -111 2 0 83 -38 180 -85 97 -47 178 -85 180 -85 1 0 64 -29 140 -65 75 -36 138 -65 140 -65 2 0 41 -18 87 -39 292 -137 665 -279 757 -289 43 -4 136 -25 346 -78 55 -14 152 -36 215 -50 63 -13 124 -26 135 -29 22 -5 294 -50 395 -65 36 -5 135 -17 220 -26 85 -9 189 -20 230 -24 41 -5 148 -12 238 -16 l162 -7 0 1666 0 1667 -4222 0 c-2364 0 -4218 -4 -4212 -9z m6659 -416 c11 -4 46 -13 78 -20 68 -15 170 2 218 36 31 22 43 19 73 -19 25 -32 74 -52 110 -45 16 3 46 24 68 46 l38 40 73 -48 c107 -71 367 -257 367 -263 0 -2 -26 -2 -57 2 -68 8 -152 44 -200 86 -19 17 -38 28 -44 25 -5 -4 -22 2 -38 11 -24 14 -32 15 -45 5 -13 -11 10 -39 174 -202 105 -104 195 -189 200 -189 6 0 10 -4 10 -9 0 -12 -56 6 -90 29 -14 9 -33 20 -43 23 -52 19 -242 164 -354 271 -43 40 -63 54 -63 42 0 -16 125 -147 250 -262 94 -86 214 -224 195 -224 -21 0 -129 54 -170 84 -16 13 -43 30 -60 39 -16 8 -91 75 -165 147 -134 131 -136 132 -200 146 -69 15 -190 19 -190 7 0 -5 39 -30 88 -58 64 -37 117 -79 197 -158 103 -101 108 -107 70 -94 -100 35 -325 158 -488 265 -54 35 -100 62 -103 59 -8 -8 184 -183 277 -253 48 -36 98 -82 113 -104 14 -21 53 -68 87 -104 34 -36 56 -66 50 -66 -15 0 -109 52 -211 119 -100 65 -262 196 -340 275 -48 49 -82 74 -65 47 3 -6 10 -47 15 -93 15 -122 18 -131 40 -125 14 3 32 -9 62 -42 62 -68 134 -124 206 -161 65 -33 86 -57 76 -84 -9 -24 -21 -20 -75 27 -57 50 -157 112 -166 104 -9 -10 64 -91 281 -312 108 -110 196 -203 196 -207 0 -9 -80 21 -139 52 -88 44 -316 258 -421 393 -43 55 -45 56 -48 31 -5 -38 14 -76 59 -120 55 -54 53 -76 -7 -54 -58 22 -119 91 -169 189 l-26 52 -28 -21 c-16 -11 -43 -20 -59 -20 -17 0 -34 -4 -37 -10 -6 -9 36 -53 112 -117 21 -18 52 -44 68 -58 17 -15 53 -44 82 -66 60 -47 69 -64 48 -95 -22 -33 -63 -31 -110 6 -44 35 -48 36 -40 11 9 -29 -26 -65 -56 -58 -32 9 -35 11 -104 92 -33 39 -69 79 -80 91 -11 11 -45 50 -76 85 -144 164 -143 163 -110 68 22 -65 67 -155 81 -164 30 -18 -7 -85 -47 -85 -31 0 -120 143 -139 223 -8 36 -23 23 -25 -23 -1 -19 -8 -54 -15 -78 -21 -64 -13 -359 12 -479 4 -21 3 -33 -4 -33 -6 0 -25 46 -42 103 -43 138 -105 333 -124 384 -20 54 -105 233 -111 233 -2 0 -12 -26 -22 -57 -9 -32 -18 -62 -20 -68 -30 -98 -29 -337 2 -510 43 -241 39 -263 -21 -115 -15 36 -38 89 -51 119 -12 29 -23 62 -23 72 0 10 -4 20 -9 23 -5 4 -13 41 -17 84 -6 65 -8 72 -15 47 -5 -16 -12 -70 -15 -118 -6 -77 -16 -109 -30 -95 -2 3 -11 76 -19 164 -14 146 -14 165 1 234 9 41 15 77 14 80 -5 10 -85 29 -92 22 -12 -13 -66 -170 -78 -229 -7 -32 -15 -65 -18 -73 -3 -8 -7 -22 -8 -30 -18 -108 -23 -152 -29 -252 -4 -66 -11 -115 -16 -112 -5 3 -9 18 -9 34 0 16 -4 40 -9 53 -17 44 -33 297 -23 359 l9 58 -78 80 c-81 84 -196 244 -244 340 -15 30 -35 66 -43 79 l-16 24 -8 -29 c-8 -31 5 -96 28 -131 11 -18 12 -27 2 -42 -13 -21 -4 -82 25 -176 l16 -50 -22 28 c-43 56 -137 229 -148 273 -6 24 -9 67 -7 94 5 50 5 50 -15 33 -27 -25 -53 -79 -90 -186 -33 -98 -40 -181 -24 -299 4 -35 3 -58 -2 -58 -17 0 -71 157 -77 227 -17 184 59 367 189 454 90 60 98 60 155 1 58 -59 115 -80 173 -65 l37 10 21 -51 c25 -61 66 -92 139 -106 57 -10 105 -5 139 16 18 11 23 11 33 -1 17 -20 27 -19 35 5 4 11 42 56 85 99 77 77 163 131 208 131 44 0 82 13 87 31 10 31 23 21 30 -23 26 -157 144 -238 263 -181 20 9 37 13 39 8 9 -29 45 -76 69 -92 29 -19 130 -24 173 -8 22 7 23 6 17 -18 -6 -27 3 -40 21 -29 13 8 33 77 33 115 0 36 10 34 38 -8 12 -19 27 -35 33 -35 6 0 9 3 7 8 -2 4 -19 39 -39 77 -20 39 -51 104 -69 145 -17 41 -45 103 -61 138 -16 34 -29 73 -29 87 0 25 2 25 38 18 20 -4 71 -7 112 -7 64 0 83 4 126 28 30 16 61 43 75 65 l23 38 46 -32 c25 -18 54 -35 65 -40z"/>
 <path d="M7290 9702 c0 -24 153 -204 163 -191 2 2 13 31 25 64 25 69 28 65 -78 99 -41 14 -83 27 -92 31 -10 4 -18 3 -18 -3z"/>
 <path d="M3699 9494 c-44 -18 -59 -48 -59 -119 0 -48 2 -55 20 -55 56 0 81 -124 82 -404 0 -159 -4 -230 -16 -286 -9 -41 -16 -76 -16 -77 0 0 24 5 53 13 64 17 325 70 389 79 42 5 49 3 72 -22 14 -15 26 -36 26 -45 0 -28 -86 -212 -145 -310 -31 -50 -54 -92 -53 -93 2 -2 49 -12 106 -24 161 -34 422 -130 451 -165 14 -17 5 -43 -20 -56 -10 -6 -60 -65 -111 -133 -94 -124 -276 -312 -380 -394 -59 -47 -65 -63 -23 -63 31 0 179 -47 230 -73 70 -35 125 -77 125 -96 0 -62 -238 -409 -421 -614 -34 -37 -59 -70 -57 -73 3 -2 45 -24 94 -48 49 -24 120 -64 158 -90 38 -25 70 -46 71 -46 2 0 5 58 6 128 3 97 8 134 20 152 9 14 54 45 100 69 80 41 191 113 341 219 179 126 245 147 379 122 40 -8 63 -20 92 -48 54 -51 88 -122 86 -175 -3 -52 -41 -131 -74 -153 -22 -14 -25 -23 -25 -76 0 -100 -36 -138 -130 -138 -36 0 -59 7 -86 25 -20 14 -45 25 -55 25 -10 0 -72 -27 -138 -60 -66 -33 -125 -60 -130 -60 -30 0 -9 -81 69 -265 61 -147 66 -161 50 -180 -21 -25 -53 -14 -72 25 -45 92 -129 311 -139 363 -18 89 -14 94 168 182 87 42 172 79 188 82 22 3 43 -4 78 -26 26 -17 59 -31 72 -31 25 0 45 25 45 58 0 15 -6 18 -29 14 -22 -3 -32 1 -41 18 -15 28 -1 45 69 79 66 32 93 66 95 119 1 46 -37 107 -83 135 -45 26 -131 23 -192 -8 -52 -27 -126 -74 -194 -124 -96 -71 -184 -127 -278 -180 l-102 -57 -6 -154 -6 -155 29 -42 c15 -23 31 -56 34 -73 6 -27 2 -36 -30 -64 -31 -29 -36 -40 -36 -79 0 -52 -29 -84 -60 -67 -14 7 -26 -1 -61 -43 -24 -29 -77 -86 -117 -128 l-73 -77 53 -12 c235 -56 574 -226 566 -285 -4 -29 -177 -111 -308 -146 -77 -20 -76 -19 -61 -28 7 -4 16 -24 21 -45 6 -29 4 -41 -13 -62 -29 -37 -173 -143 -226 -166 -24 -10 -41 -21 -39 -24 3 -3 56 -18 118 -34 225 -59 399 -131 501 -205 62 -46 127 -118 145 -162 13 -31 13 -37 -1 -59 -8 -13 -19 -24 -24 -24 -5 0 -82 -35 -172 -79 -90 -43 -204 -93 -254 -112 -49 -18 -94 -36 -98 -40 -5 -4 15 -14 45 -23 66 -19 124 -63 178 -134 65 -87 64 -152 -2 -152 -22 0 -33 7 -46 31 -54 99 -139 165 -218 167 -110 5 -254 -81 -307 -183 -33 -63 -28 -159 12 -262 41 -105 86 -164 147 -192 l47 -22 53 22 c36 14 65 19 85 15 28 -5 37 0 92 57 35 35 89 77 124 95 34 18 63 37 65 42 2 5 19 16 40 24 l36 15 16 -40 c9 -22 21 -74 27 -115 l12 -75 57 55 c62 60 180 140 250 171 25 11 47 23 50 27 6 7 56 28 70 28 4 0 13 -21 19 -47 66 -291 61 -611 -14 -796 -16 -40 -20 -59 -12 -62 7 -2 46 -9 87 -15 41 -7 128 -23 194 -36 65 -13 124 -24 131 -24 6 0 45 50 85 112 122 187 231 280 359 307 159 34 329 -68 420 -250 23 -46 44 -85 46 -87 8 -8 59 95 82 166 19 61 25 98 25 179 0 112 -4 140 -34 228 -88 262 -309 496 -606 644 -102 51 -248 101 -296 101 -38 0 -76 30 -76 61 0 9 15 30 34 46 31 28 49 34 201 72 17 4 49 7 73 6 23 0 41 2 40 6 -2 3 -46 41 -98 85 -265 219 -391 413 -446 684 -12 62 -27 248 -21 272 4 15 17 39 30 55 42 51 143 314 183 478 35 142 43 198 53 360 9 150 0 420 -18 507 -49 237 -70 314 -137 488 -102 266 -310 653 -503 935 -104 152 -205 290 -244 335 -197 221 -372 389 -488 468 -49 33 -59 48 -59 87 0 54 33 79 145 110 33 8 69 18 80 22 64 18 197 32 312 32 72 1 134 5 137 9 8 13 -53 104 -98 146 -22 21 -69 51 -103 67 -62 29 -64 29 -251 29 -136 0 -202 -4 -237 -15 -27 -8 -51 -12 -55 -10 -6 4 -34 8 -165 25 -94 12 -114 12 -156 -6z m561 -5567 c41 -21 70 -84 69 -147 -5 -141 -113 -253 -230 -237 -81 11 -165 120 -124 161 21 21 31 20 51 -3 77 -90 101 -100 150 -57 l28 23 -30 16 c-61 32 -94 144 -60 206 26 47 94 65 146 38z m1253 -99 c87 -26 148 -134 162 -288 5 -50 -32 -179 -62 -219 -33 -43 -109 -91 -146 -91 l-28 0 20 -26 c25 -32 26 -51 4 -76 -22 -25 -46 -23 -82 8 -17 14 -31 23 -31 19 0 -11 32 -70 57 -103 42 -55 18 -113 -40 -98 -52 13 -134 171 -164 315 -22 105 -23 269 -2 349 43 161 176 251 312 210z"/>
 <path d="M4185 3849 c-20 -31 29 -120 57 -103 11 7 10 57 -2 88 -10 27 -43 36 -55 15z"/>
 <path d="M5438 3467 c-43 -29 -50 -78 -17 -113 28 -30 51 -30 83 -1 41 36 36 104 -8 125 -21 9 -30 7 -58 -11z"/>
 <path d="M4830 9374 c0 -4 19 -42 42 -85 l42 -79 -21 -28 -20 -27 -183 -7 c-188 -7 -347 -23 -365 -37 -5 -5 -27 -11 -47 -15 -21 -4 -40 -11 -43 -16 -3 -5 18 -28 47 -51 158 -124 442 -419 551 -572 11 -16 21 -17 117 -7 58 6 116 13 130 15 14 2 75 11 135 19 61 9 121 19 135 22 35 10 36 10 120 33 41 11 116 35 165 54 50 19 126 49 170 66 44 17 107 38 140 47 33 8 76 20 95 26 19 6 41 13 49 15 13 3 -67 45 -334 173 -222 107 -889 441 -899 451 -11 10 -26 12 -26 3z"/>
 <path d="M6334 8603 c34 -48 93 -168 115 -235 7 -20 18 -39 25 -41 26 -10 122 -172 203 -342 95 -200 103 -224 103 -332 0 -82 0 -83 -30 -98 -26 -14 -33 -14 -58 -1 -15 8 -48 35 -72 61 -25 25 -74 70 -110 98 -36 28 -67 54 -70 58 -11 12 -160 99 -250 144 -51 26 -109 57 -129 70 -20 13 -58 27 -86 30 -49 6 -51 6 -110 -45 -126 -109 -281 -191 -451 -239 -38 -10 -79 -23 -91 -28 l-21 -8 30 -60 c121 -242 225 -517 263 -700 24 -112 24 -113 37 -185 16 -91 16 -585 -1 -670 -7 -36 -14 -74 -16 -85 -3 -11 -9 -40 -15 -64 -6 -24 -9 -45 -8 -46 2 -1 48 8 103 21 217 50 209 49 262 26 32 -13 50 -28 55 -44 39 -131 68 -208 111 -292 56 -107 151 -229 182 -234 11 -1 49 17 84 40 69 47 57 26 164 283 52 124 117 291 117 301 0 3 7 20 15 37 20 44 105 281 166 462 28 83 54 159 59 170 7 15 98 288 105 315 1 3 4 12 7 20 3 8 36 107 72 220 37 113 71 214 76 225 5 11 20 56 34 100 56 184 178 522 197 548 11 16 19 30 17 32 -2 3 -80 41 -173 86 -94 45 -230 110 -302 145 -73 35 -193 93 -265 128 -73 35 -184 89 -246 120 -63 31 -118 56 -123 56 -5 0 6 -21 25 -47z"/>
 <path d="M6078 8635 c-3 -3 -14 -8 -24 -10 -67 -15 -170 -48 -239 -75 -161 -64 -262 -100 -325 -115 -36 -9 -77 -20 -91 -26 -23 -9 -167 -31 -401 -61 l-87 -11 88 -131 c92 -137 166 -260 215 -351 32 -62 36 -64 125 -35 34 11 81 25 103 31 106 28 272 124 366 211 66 60 61 58 113 46 24 -5 53 -11 64 -13 131 -20 320 -106 485 -219 80 -55 82 -56 149 -116 25 -22 47 -38 49 -35 8 8 -27 93 -101 245 -86 176 -119 233 -169 285 -21 22 -45 62 -54 90 -18 53 -71 163 -101 207 -31 46 -93 88 -128 88 -17 0 -34 -2 -37 -5z"/>
 <path d="M7462 8035 c-19 -42 -114 -324 -258 -760 -69 -209 -132 -396 -139 -415 -7 -19 -34 -98 -59 -175 -51 -156 -140 -413 -181 -520 -14 -38 -37 -99 -49 -135 -13 -36 -29 -76 -34 -90 -6 -14 -27 -68 -47 -120 -20 -52 -68 -171 -107 -264 -69 -163 -73 -169 -119 -200 -27 -17 -49 -33 -49 -36 0 -3 19 -14 43 -25 49 -23 127 -97 151 -143 16 -30 19 -32 74 -32 93 0 93 1 161 235 11 39 28 102 37 140 8 39 19 79 24 90 5 11 16 54 25 95 9 41 20 84 25 95 5 11 18 61 30 110 11 50 22 97 25 105 4 12 20 78 50 205 3 11 16 67 29 125 13 58 25 105 26 105 1 0 12 45 25 100 13 55 35 150 50 210 14 61 27 117 29 125 1 8 5 22 9 30 3 8 13 53 22 100 9 47 20 94 25 105 5 11 18 65 30 120 11 55 22 107 25 115 3 8 16 60 29 115 32 128 70 279 96 378 15 56 20 102 18 160 -3 77 -4 80 -16 52z"/>
 <path d="M5839 5836 c-3 -3 -37 -12 -75 -20 -38 -8 -101 -27 -140 -41 l-70 -26 -51 -135 c-27 -73 -47 -134 -43 -134 4 0 45 17 91 39 129 59 205 84 233 77 27 -7 57 -54 70 -111 11 -44 63 -160 94 -208 89 -139 185 -229 300 -279 63 -28 183 -29 214 -2 22 20 78 103 78 116 0 4 -17 26 -37 49 -41 45 -98 77 -188 105 -44 14 -72 31 -105 64 -97 96 -206 291 -249 445 l-16 60 -50 3 c-28 2 -53 1 -56 -2z"/>
 </g>
<g id="layer104" fill="#ffffff" stroke="none">
 <path d="M0 5400 l0 -5400 5400 0 5400 0 -2 3618 -3 3617 -67 -3 c-37 -2 -72 -1 -78 3 -6 4 -41 8 -78 9 -37 2 -89 6 -117 9 -88 10 -209 20 -237 18 -15 -1 -30 4 -33 10 -4 6 -22 8 -46 4 -21 -4 -44 -3 -51 1 -7 5 -27 7 -44 5 -18 -1 -35 3 -39 8 -3 6 -10 9 -14 7 -4 -3 -39 0 -77 6 -38 6 -79 10 -91 9 -12 0 -25 3 -28 8 -3 5 -17 8 -31 5 -14 -3 -32 0 -40 6 -7 7 -18 9 -23 6 -12 -8 -218 31 -244 45 -10 5 -22 7 -27 4 -5 -3 -44 4 -87 16 -43 11 -87 22 -98 24 -11 1 -20 3 -20 4 0 1 -15 4 -34 7 -18 2 -54 11 -78 19 -24 8 -63 17 -86 20 -23 3 -55 7 -72 9 -16 2 -32 4 -35 6 -3 1 -8 2 -12 1 -15 -2 -247 68 -368 112 -156 56 -243 91 -415 171 -27 13 -66 29 -85 36 -19 8 -42 19 -51 27 -8 7 -20 13 -26 13 -6 0 -33 10 -60 23 -26 13 -79 37 -116 55 -37 17 -96 45 -130 61 -35 17 -68 31 -75 31 -8 0 -12 -19 -13 -52 -2 -87 -8 -140 -19 -153 -5 -6 -7 -14 -4 -17 3 -3 -4 -32 -16 -64 -11 -32 -20 -68 -20 -81 0 -12 -5 -25 -10 -28 -6 -4 -8 -10 -5 -14 2 -5 -7 -48 -21 -97 -14 -49 -27 -98 -28 -109 -2 -11 -4 -20 -6 -20 -1 0 -3 -11 -5 -25 -3 -27 -33 -155 -43 -180 -3 -8 -5 -18 -4 -22 2 -8 -36 -156 -45 -178 -3 -8 -5 -19 -4 -24 1 -5 -1 -16 -5 -25 -4 -9 -8 -25 -9 -36 -2 -21 -33 -149 -42 -175 -3 -8 -7 -29 -9 -47 -1 -18 -7 -40 -13 -50 -5 -10 -12 -39 -16 -66 -4 -26 -11 -50 -16 -52 -4 -3 -6 -12 -3 -19 3 -7 -2 -33 -10 -57 -7 -24 -19 -69 -26 -99 -7 -30 -15 -62 -18 -70 -3 -8 -4 -19 -3 -24 1 -4 -5 -29 -13 -55 -8 -25 -22 -82 -31 -126 -9 -44 -20 -89 -25 -100 -11 -25 -29 -100 -36 -144 -2 -19 -7 -38 -11 -44 -3 -5 -18 -60 -34 -121 -31 -123 -49 -193 -57 -216 -2 -8 -6 -24 -7 -35 -3 -18 -28 -105 -42 -145 -3 -8 -7 -25 -9 -36 -2 -20 -34 -99 -53 -134 -17 -32 -75 -54 -145 -55 -51 -1 -70 -5 -77 -17 -10 -18 -151 -129 -184 -144 -11 -6 -57 -9 -103 -8 -76 1 -90 5 -168 43 -47 24 -88 49 -91 57 -3 8 -10 14 -16 14 -17 0 -179 173 -193 207 -8 17 -18 34 -24 38 -12 8 -74 137 -90 190 -7 22 -16 44 -20 49 -9 10 -68 -9 -127 -41 -23 -13 -47 -23 -52 -23 -6 0 -33 -13 -59 -30 -27 -16 -56 -30 -64 -30 -8 0 -22 -8 -30 -17 -19 -23 -32 -110 -17 -119 6 -4 8 -20 5 -39 -4 -19 -3 -36 2 -39 5 -3 9 -18 10 -34 1 -49 73 -213 131 -301 54 -83 213 -253 269 -288 15 -10 53 -38 86 -63 63 -49 102 -76 126 -87 37 -17 70 -49 70 -67 0 -12 -12 -32 -25 -45 -24 -22 -30 -23 -106 -17 -57 5 -84 4 -95 -5 -8 -7 -30 -9 -54 -6 -61 8 -55 -6 13 -32 34 -13 78 -35 97 -48 19 -12 40 -23 47 -23 18 0 222 -139 236 -161 6 -10 17 -19 23 -19 15 0 150 -142 201 -211 81 -110 157 -277 170 -374 14 -108 16 -133 16 -175 0 -55 -16 -185 -22 -185 -1 0 -4 -13 -6 -28 -5 -37 -59 -152 -91 -195 -24 -31 -25 -35 -11 -65 28 -61 6 -138 -47 -164 -31 -14 -41 -15 -76 -3 -57 19 -74 49 -67 122 3 32 10 65 17 72 8 11 8 16 -1 21 -6 4 -29 44 -50 89 -69 141 -74 149 -148 183 -65 31 -144 40 -195 23 -40 -13 -152 -98 -170 -129 -6 -10 -35 -53 -64 -95 -29 -42 -55 -82 -58 -89 -5 -14 -1 -16 146 -57 41 -12 89 -27 105 -34 17 -7 41 -18 55 -23 36 -15 120 -92 120 -110 0 -20 -82 -98 -166 -158 -126 -91 -201 -143 -214 -148 -33 -15 -74 -44 -77 -54 -6 -16 572 -589 610 -605 19 -8 22 -30 7 -57 -6 -12 -27 -21 -57 -26 -26 -4 -55 -11 -64 -16 -9 -4 -50 -12 -90 -16 -119 -13 -184 -11 -389 12 -61 7 -252 55 -267 67 -19 16 -16 2 16 -60 29 -57 44 -91 76 -167 10 -22 23 -53 30 -70 7 -16 17 -41 23 -55 5 -14 15 -38 22 -55 7 -16 16 -39 20 -50 5 -11 15 -36 24 -57 9 -20 16 -42 16 -50 0 -8 4 -18 9 -24 7 -8 47 -126 85 -254 9 -30 21 -82 27 -115 6 -33 13 -71 15 -85 26 -137 -19 -203 -92 -135 -15 14 -33 25 -41 25 -7 0 -21 4 -31 9 -9 4 -33 15 -52 23 -76 33 -156 71 -180 84 -14 8 -43 24 -65 35 -49 24 -71 37 -112 67 -17 12 -34 22 -38 22 -8 0 -100 65 -127 89 -10 9 -29 25 -44 36 -15 11 -37 29 -49 40 -12 11 -44 39 -72 62 -57 47 -47 52 -92 -47 -48 -106 -97 -170 -130 -170 -12 0 -24 8 -28 17 -3 10 -16 32 -28 48 -12 17 -25 37 -29 45 -4 8 -22 42 -41 75 -36 63 -93 176 -105 210 -5 11 -14 34 -22 52 l-14 32 -30 -36 c-38 -48 -289 -298 -343 -343 -23 -19 -52 -44 -65 -55 -98 -84 -250 -193 -328 -234 -68 -37 -109 -39 -137 -9 -19 19 -20 30 -15 117 20 332 33 488 58 668 l6 43 -182 -130 c-101 -71 -229 -164 -285 -205 -56 -41 -107 -75 -113 -75 -5 0 -10 -4 -10 -9 0 -5 -25 -26 -57 -47 -60 -41 -97 -71 -145 -117 -28 -27 -57 -30 -80 -8 -14 13 -22 204 -23 543 0 186 -2 338 -5 338 -3 0 -30 -9 -59 -21 -30 -11 -70 -22 -89 -25 -19 -2 -38 -7 -43 -10 -17 -10 -68 20 -74 43 -9 36 43 182 87 245 26 37 -6 27 -144 -42 -137 -69 -194 -96 -248 -118 -14 -5 -46 -19 -72 -31 -26 -12 -54 -21 -61 -21 -7 0 -17 -4 -22 -9 -14 -13 -137 -49 -207 -61 -33 -5 -68 -16 -78 -25 -57 -51 -102 36 -53 103 11 15 23 34 27 42 23 49 90 148 138 205 16 18 28 37 28 42 0 5 12 22 28 39 15 17 38 46 51 65 26 37 37 50 73 90 13 14 36 43 52 64 24 31 26 37 10 31 -10 -5 -60 -10 -111 -13 l-92 -5 -20 41 c-25 48 -26 74 -6 91 29 24 15 29 -62 23 -115 -10 -491 -9 -543 1 -25 4 -65 9 -89 10 -53 3 -77 29 -62 67 9 24 92 107 205 204 32 28 75 66 95 85 20 19 56 52 79 73 l43 37 -76 0 c-67 0 -79 3 -100 25 -30 29 -31 49 -5 75 12 12 18 25 15 31 -4 6 -86 9 -208 9 -111 0 -220 2 -242 4 -50 6 -132 15 -166 20 -14 1 -32 6 -39 11 -7 4 -41 9 -77 10 -69 2 -90 14 -98 55 -6 29 20 59 93 109 99 67 127 86 202 142 41 31 91 67 111 80 20 13 123 85 229 159 168 117 189 135 169 141 -13 4 -49 14 -79 23 -150 41 -180 50 -250 73 -41 13 -93 34 -115 45 -22 12 -56 24 -75 28 -31 5 -35 9 -38 40 -4 51 20 74 268 259 86 64 188 138 227 165 l71 48 -35 32 c-42 37 -73 65 -148 131 -76 67 -272 263 -300 300 -38 49 -40 77 -10 124 14 23 36 46 48 51 12 5 49 25 82 45 33 19 148 77 255 130 107 53 212 105 232 115 20 11 44 20 52 20 8 0 17 4 21 9 3 6 -96 111 -220 234 -124 123 -225 229 -225 236 0 7 -11 29 -25 49 -14 20 -25 41 -25 47 0 23 27 47 56 51 16 2 49 6 74 10 25 3 70 7 100 8 30 2 98 6 150 10 52 4 136 3 185 -2 50 -6 94 -8 98 -5 5 3 -9 17 -31 32 -60 39 -82 72 -79 115 2 19 6 38 9 41 3 3 36 16 74 29 l69 23 -31 16 c-32 16 -254 176 -289 208 -11 10 -34 29 -51 43 -18 14 -34 37 -36 51 -6 27 17 67 35 63 7 -1 22 3 33 10 12 6 41 14 65 18 24 3 53 7 64 9 85 14 231 33 300 39 22 2 43 4 47 5 11 2 -3 31 -27 57 -12 13 -35 43 -51 66 -16 24 -34 48 -40 53 -17 16 -104 133 -104 140 0 4 -15 24 -33 45 -18 22 -39 52 -47 67 -8 15 -29 49 -47 74 -18 26 -33 50 -33 54 0 3 -11 21 -24 38 -14 18 -29 43 -35 57 -6 14 -22 43 -36 65 -38 61 -105 203 -111 234 -5 22 1 33 29 58 30 26 45 31 116 37 45 4 105 5 134 1 28 -3 84 -7 122 -10 108 -7 188 -15 215 -21 14 -3 39 -8 55 -10 17 -3 39 -7 50 -9 58 -12 73 -14 109 -20 l39 -6 -17 25 c-23 36 -54 88 -66 111 -6 11 -21 38 -35 60 -13 22 -31 54 -40 70 -8 17 -31 57 -50 90 -19 33 -49 89 -65 125 -17 36 -38 79 -47 95 -8 17 -26 63 -39 104 -21 64 -23 79 -12 108 14 37 44 51 76 34 14 -8 29 -8 47 -1 31 12 93 22 225 35 82 9 300 9 405 0 166 -14 167 -14 150 5 -8 9 -15 21 -15 27 0 6 -6 16 -14 22 -8 7 -22 26 -31 44 -9 18 -25 46 -35 62 -11 17 -23 37 -27 45 -3 8 -17 29 -29 45 -46 63 -277 518 -334 660 -7 17 -17 38 -22 49 -18 35 -36 121 -28 135 4 8 5 22 3 31 -8 30 14 57 49 63 31 4 70 -7 113 -35 20 -14 86 -54 120 -75 11 -6 34 -19 52 -28 18 -9 37 -23 44 -31 6 -8 15 -14 20 -14 8 0 206 -131 394 -260 107 -74 177 -133 275 -231 101 -101 88 -101 155 -4 32 47 62 85 67 85 4 0 8 7 8 15 0 9 7 18 15 21 8 4 15 11 15 17 0 6 7 17 15 26 8 9 31 36 52 60 21 25 62 70 92 100 l54 56 2 80 c2 96 25 148 82 188 46 32 137 51 202 43 25 -4 66 -9 91 -12 25 -3 52 -6 60 -6 8 0 25 -5 38 -11 18 -8 28 -8 45 3 15 9 66 15 162 17 77 3 143 5 148 6 4 1 -9 11 -30 21 -21 10 -51 25 -68 34 -16 9 -37 19 -45 22 -8 4 -28 14 -45 23 -42 21 -97 49 -117 59 -10 4 -26 12 -35 17 -10 5 -54 25 -98 45 -44 20 -87 41 -95 46 -8 6 -26 15 -40 21 -51 22 -127 56 -195 88 -38 17 -94 43 -123 56 -29 13 -76 35 -105 48 -28 14 -68 30 -87 37 -19 8 -42 19 -51 27 -8 7 -21 13 -27 13 -7 0 -20 4 -30 9 -9 5 -28 13 -42 19 -14 6 -61 27 -105 47 -84 38 -117 53 -150 66 -11 4 -55 24 -97 43 -42 20 -80 36 -84 36 -8 0 -26 8 -166 74 -42 20 -79 36 -82 36 -3 0 -36 14 -73 31 -108 48 -169 76 -229 103 -30 14 -78 36 -107 48 -28 13 -81 38 -117 55 -36 17 -75 34 -87 38 -13 3 -23 11 -23 16 0 5 -350 9 -900 9 l-900 0 0 -5400z"/>
 <path d="M2390 10784 c19 -9 49 -21 65 -29 17 -7 60 -27 96 -44 37 -17 70 -31 73 -31 7 0 38 -14 181 -79 33 -15 89 -40 125 -55 62 -27 133 -58 250 -113 30 -14 64 -29 75 -33 20 -8 78 -33 173 -75 116 -52 160 -72 227 -104 39 -17 93 -42 120 -55 85 -38 189 -87 215 -102 14 -7 36 -18 50 -25 14 -6 133 -64 265 -129 132 -64 256 -120 276 -124 35 -6 77 -29 191 -107 31 -22 64 -39 72 -39 8 0 18 -5 21 -11 4 -6 53 -32 108 -59 56 -27 109 -53 117 -58 29 -17 458 -232 500 -251 14 -6 32 -15 40 -20 8 -5 31 -16 50 -25 19 -9 42 -20 50 -24 15 -9 245 -120 290 -141 14 -6 32 -15 40 -19 13 -8 113 -55 190 -90 14 -7 32 -16 40 -20 39 -22 188 -92 196 -92 5 0 20 -9 34 -20 14 -11 32 -20 41 -20 9 0 28 -9 42 -20 14 -11 30 -20 36 -20 9 0 158 -71 226 -107 11 -6 31 -16 45 -22 14 -6 32 -15 40 -19 41 -23 167 -82 176 -82 6 0 25 -11 44 -25 19 -14 40 -25 47 -25 10 0 93 -38 188 -87 23 -11 158 -75 195 -92 14 -6 32 -15 40 -19 8 -5 46 -23 83 -40 37 -17 98 -45 135 -62 218 -102 439 -200 451 -200 5 0 14 -7 21 -15 7 -8 20 -15 29 -15 9 0 43 -13 76 -30 33 -16 67 -30 75 -30 8 0 38 -11 65 -25 28 -13 57 -25 66 -25 8 0 60 -16 115 -35 61 -22 109 -34 126 -31 15 3 30 1 33 -4 4 -6 10 -8 15 -5 8 5 140 -26 180 -42 8 -3 19 -5 24 -4 5 1 30 -4 55 -12 25 -8 62 -18 81 -22 19 -4 40 -12 47 -17 7 -5 16 -7 21 -4 5 3 34 -1 63 -8 47 -12 155 -36 184 -41 6 -1 12 -3 15 -4 3 -2 29 -4 58 -6 29 -2 67 -8 85 -14 32 -11 108 -23 137 -23 8 0 22 -2 30 -5 8 -4 45 -8 82 -9 37 -1 73 -6 80 -10 6 -4 23 -8 37 -10 14 -1 60 -5 101 -10 41 -4 86 -7 100 -7 14 1 31 -3 37 -9 8 -6 34 -8 67 -4 34 5 56 3 61 -3 4 -7 26 -9 60 -5 30 4 62 3 72 -1 10 -5 57 -8 105 -9 l88 -1 0 1663 0 1662 -4222 0 c-3832 0 -4220 -2 -4188 -16z m6542 -337 c55 -53 144 -89 223 -89 74 0 109 9 157 39 21 12 39 23 41 23 2 0 22 -18 45 -40 30 -30 48 -40 73 -40 52 0 94 20 108 51 7 16 18 29 24 29 27 0 479 -318 471 -331 -8 -13 -62 -3 -157 28 -56 19 -89 37 -118 65 -22 21 -44 36 -48 33 -5 -2 -23 0 -40 6 -17 6 -39 8 -47 5 -15 -6 -15 -8 1 -26 10 -11 22 -20 26 -20 14 0 129 -112 129 -125 0 -7 28 -37 63 -68 34 -31 79 -72 101 -92 21 -19 41 -35 45 -35 4 0 18 -11 31 -25 l23 -25 -22 0 c-23 0 -119 45 -185 88 -80 52 -226 163 -226 172 0 6 -6 10 -12 10 -7 0 -41 30 -75 66 -64 67 -85 78 -38 20 48 -58 134 -146 144 -146 6 0 20 -13 33 -30 12 -16 26 -30 31 -30 11 0 87 -74 87 -85 0 -4 11 -16 25 -27 14 -11 25 -23 25 -28 0 -5 23 -30 50 -56 28 -26 50 -51 50 -55 0 -26 -121 22 -203 82 -22 16 -44 29 -50 29 -16 0 -86 60 -92 80 -4 11 -11 20 -17 20 -15 0 -116 99 -149 147 -23 33 -37 43 -71 49 -24 5 -55 7 -70 6 -14 -2 -29 2 -33 7 -7 12 -87 15 -98 5 -6 -6 23 -29 89 -72 10 -7 33 -19 49 -26 17 -8 65 -51 109 -95 43 -45 81 -81 85 -81 4 0 22 -16 41 -35 58 -60 25 -49 -230 78 -57 29 -127 67 -153 85 -27 17 -52 32 -57 32 -4 0 -26 14 -48 30 -23 17 -44 30 -48 30 -3 0 -22 12 -42 27 -34 25 -33 22 13 -27 28 -30 59 -61 70 -69 11 -9 30 -26 41 -38 12 -13 24 -23 28 -23 15 0 165 -122 181 -147 10 -16 59 -70 108 -120 50 -51 88 -95 85 -98 -13 -13 -316 166 -362 214 -17 17 -35 31 -41 31 -7 0 -31 18 -55 40 -24 22 -46 40 -49 40 -2 0 -36 32 -74 71 -38 39 -73 67 -77 62 -4 -4 -3 -42 2 -83 11 -84 27 -128 39 -108 9 15 51 -20 77 -64 9 -16 22 -28 29 -28 6 0 16 -6 20 -13 10 -16 108 -87 120 -87 5 0 30 -13 56 -30 39 -25 47 -35 47 -60 0 -40 -27 -51 -51 -22 -9 12 -20 22 -24 22 -4 0 -25 15 -48 34 -23 18 -58 41 -77 51 l-35 18 23 -25 c12 -13 22 -27 22 -31 0 -4 30 -36 68 -71 37 -35 105 -107 152 -160 46 -53 89 -96 94 -96 6 0 36 -26 68 -57 93 -92 73 -108 -58 -44 -43 21 -92 50 -107 65 -15 14 -32 26 -37 26 -6 0 -15 9 -22 20 -7 11 -16 20 -21 20 -7 0 -237 227 -237 234 0 1 -20 25 -45 52 -26 28 -45 42 -45 33 0 -21 51 -98 89 -133 17 -17 31 -34 31 -39 0 -16 -93 -1 -105 17 -7 9 -15 16 -19 16 -11 0 -65 64 -81 97 -9 18 -20 35 -25 38 -6 3 -10 14 -10 24 0 36 -21 41 -65 15 -24 -13 -48 -23 -55 -22 -24 6 -21 -19 4 -35 14 -9 85 -67 158 -128 121 -101 133 -114 135 -145 1 -43 -37 -76 -66 -56 -9 7 -26 16 -38 21 -11 6 -24 15 -29 22 -5 8 -12 0 -23 -22 -27 -57 -59 -52 -131 19 -33 33 -60 62 -60 64 0 3 -23 29 -51 59 -28 30 -59 66 -68 81 -10 15 -38 46 -64 68 -26 23 -47 48 -47 56 0 8 -4 14 -10 14 -16 0 -12 -21 15 -75 13 -27 25 -57 25 -66 0 -9 7 -22 15 -29 22 -18 47 -75 43 -97 -2 -9 -15 -24 -31 -33 -24 -13 -30 -13 -54 0 -27 15 -92 112 -93 140 0 8 -9 33 -19 54 l-19 40 -12 -77 c-7 -43 -17 -80 -21 -83 -13 -8 -11 -152 2 -160 8 -5 10 -31 6 -80 -3 -43 -1 -76 4 -80 5 -3 9 -29 9 -57 -1 -29 1 -76 4 -104 3 -29 2 -53 -2 -53 -5 0 -23 48 -41 108 -18 59 -40 130 -48 157 -9 28 -17 57 -17 65 -1 9 -5 20 -9 26 -3 6 -11 28 -16 50 -18 69 -52 157 -101 259 -26 55 -50 107 -52 115 -3 8 -13 -19 -22 -60 -10 -41 -20 -82 -23 -90 -7 -17 -8 -39 -12 -185 -2 -55 0 -108 4 -118 4 -10 5 -33 2 -52 -3 -19 -2 -37 4 -40 5 -4 9 -20 9 -38 -1 -18 2 -45 4 -62 3 -16 8 -46 11 -65 3 -19 11 -59 17 -87 7 -29 9 -55 5 -59 -13 -13 -33 16 -72 108 -22 51 -42 95 -45 98 -15 12 -45 147 -50 225 -3 45 -19 -25 -25 -107 -3 -45 -10 -87 -14 -91 -15 -15 -33 4 -27 28 3 13 1 27 -5 30 -6 4 -9 23 -8 44 1 20 -2 44 -6 54 -4 10 -5 33 -2 52 3 19 1 37 -4 40 -13 9 -3 141 15 192 14 40 14 42 -9 57 -40 26 -59 20 -79 -24 -33 -75 -88 -276 -87 -317 0 -12 -3 -24 -8 -28 -5 -3 -7 -14 -4 -25 3 -11 2 -28 -2 -37 -9 -25 -15 -118 -15 -245 -1 -60 -5 -108 -10 -108 -13 0 -23 38 -15 67 3 14 1 31 -5 38 -6 8 -10 22 -9 32 1 10 -1 25 -4 33 -4 8 -8 35 -11 60 -2 25 -7 53 -11 63 -4 10 -5 31 -2 47 4 16 2 32 -3 35 -12 7 -12 133 -1 192 8 41 7 42 -50 99 -33 32 -59 64 -59 70 0 7 -10 21 -23 31 -40 32 -136 175 -183 273 -9 19 -20 41 -23 49 -11 23 -29 24 -36 2 -3 -12 3 -37 16 -63 16 -32 22 -64 24 -123 2 -44 5 -87 8 -95 3 -8 12 -35 21 -60 22 -63 21 -78 -4 -55 -11 10 -22 26 -25 36 -4 11 -22 42 -41 70 -19 28 -52 89 -74 136 -32 67 -39 92 -34 118 3 18 2 41 -3 49 -8 14 -12 12 -29 -11 -11 -16 -26 -50 -34 -78 -7 -27 -20 -63 -29 -80 -8 -16 -16 -34 -16 -40 -1 -5 -3 -12 -4 -15 -6 -15 -5 -243 2 -247 13 -8 8 -65 -5 -61 -35 12 -98 202 -98 294 0 72 37 217 66 260 13 19 24 38 24 42 0 17 135 133 161 139 16 3 32 10 35 14 15 24 73 -14 74 -48 0 -7 5 -13 11 -13 6 0 25 -10 42 -22 39 -28 113 -40 128 -21 20 24 36 14 49 -32 28 -101 133 -138 284 -100 18 5 31 4 35 -4 5 -8 21 5 47 36 113 136 177 181 277 195 71 10 77 13 86 39 13 37 33 38 30 2 -5 -63 38 -156 91 -195 14 -10 48 -22 75 -26 41 -7 56 -5 80 10 45 27 60 23 75 -22 7 -22 17 -40 22 -40 5 0 22 -10 37 -21 33 -24 98 -28 144 -10 36 14 50 6 43 -25 -4 -13 -4 -24 -2 -24 11 0 28 45 40 103 l13 61 26 -39 c34 -50 35 -34 2 20 -14 22 -25 46 -25 53 0 8 -8 26 -18 40 -10 15 -25 43 -32 62 -7 19 -21 53 -31 75 -10 23 -21 53 -24 67 -4 15 -13 32 -21 39 -18 15 -18 68 0 75 8 3 39 -1 70 -10 73 -22 94 -20 162 10 66 29 99 55 120 97 17 31 18 32 36 14z m1073 -657 c3 -5 4 -10 1 -10 -3 0 -8 5 -11 10 -3 6 -4 10 -1 10 3 0 8 -4 11 -10z"/>
 <path d="M7300 9695 c0 -4 18 -29 40 -55 22 -26 40 -52 40 -57 0 -9 52 -63 61 -63 2 0 13 17 23 38 10 20 22 45 27 54 13 25 11 28 -8 28 -10 0 -41 11 -69 24 -56 26 -114 42 -114 31z"/>
 <path d="M3745 9500 c-3 -5 -18 -10 -33 -10 -38 0 -51 -11 -62 -51 -17 -59 -12 -88 19 -117 62 -57 74 -126 74 -417 0 -195 -6 -283 -22 -314 -17 -30 -14 -43 7 -32 16 9 227 58 284 67 15 2 43 6 61 9 104 18 121 17 155 -13 36 -32 38 -39 18 -79 -7 -15 -20 -44 -28 -63 -24 -56 -67 -142 -93 -185 -13 -22 -27 -47 -31 -55 -4 -8 -15 -27 -26 -41 l-18 -27 38 -5 c111 -16 246 -51 322 -84 19 -8 44 -19 55 -23 119 -49 155 -72 155 -96 0 -14 -7 -27 -17 -31 -19 -7 -63 -49 -63 -60 0 -4 -7 -13 -15 -22 -9 -9 -39 -47 -67 -86 -67 -90 -297 -320 -392 -392 -17 -13 -28 -23 -25 -24 2 0 18 -2 34 -4 30 -4 66 -14 155 -42 25 -7 63 -25 85 -38 22 -14 56 -33 76 -44 20 -11 39 -27 42 -35 6 -14 -20 -70 -80 -176 -39 -68 -179 -265 -222 -312 -9 -10 -25 -29 -36 -44 -39 -52 -71 -88 -110 -125 -21 -21 -37 -40 -35 -43 3 -2 57 -30 120 -62 63 -32 137 -73 163 -92 l48 -35 -2 131 c-3 151 1 163 77 203 27 14 76 40 109 58 33 17 69 38 80 47 64 49 225 164 229 164 3 0 22 12 43 26 21 14 65 38 98 53 58 26 92 30 206 23 28 -2 124 -79 153 -123 50 -79 39 -184 -26 -252 -36 -37 -41 -48 -43 -94 -2 -54 -41 -131 -68 -134 -85 -10 -167 5 -167 30 0 34 -84 7 -255 -82 -11 -6 -33 -17 -48 -25 -19 -9 -25 -18 -19 -25 6 -7 13 -27 17 -45 4 -18 13 -45 21 -60 8 -15 14 -32 14 -38 0 -6 13 -38 30 -72 16 -33 32 -74 36 -89 4 -15 14 -38 22 -50 21 -33 9 -69 -25 -76 -29 -5 -63 15 -63 38 0 6 -11 34 -25 61 -14 27 -25 55 -25 62 0 13 -4 23 -35 81 -10 19 -20 44 -21 55 -2 12 -12 48 -24 80 -30 89 -27 109 22 145 23 17 47 31 53 31 7 0 36 13 66 30 30 16 61 30 68 30 8 0 31 11 50 25 22 15 57 27 91 31 50 6 59 4 87 -20 21 -17 43 -26 67 -26 32 0 36 3 36 25 0 20 -5 25 -23 25 -13 0 -32 9 -42 20 -27 30 -6 61 68 96 50 23 67 38 86 73 20 36 22 47 12 63 -7 11 -21 37 -33 59 -11 21 -24 39 -28 39 -5 0 -21 5 -37 11 -49 20 -125 14 -169 -13 -21 -14 -67 -39 -101 -57 -34 -18 -67 -39 -74 -47 -16 -20 -135 -104 -147 -104 -5 0 -15 -7 -22 -16 -8 -8 -27 -22 -44 -30 -17 -8 -58 -30 -91 -49 -33 -19 -68 -37 -77 -41 -15 -5 -18 -26 -20 -168 -3 -153 -2 -163 20 -200 13 -21 26 -54 29 -73 5 -30 1 -38 -31 -67 -28 -26 -36 -42 -36 -67 0 -71 -22 -100 -60 -79 -14 8 -23 5 -38 -13 -12 -12 -45 -49 -74 -82 -29 -32 -70 -77 -91 -98 -21 -22 -36 -41 -35 -42 2 -1 41 -11 88 -24 46 -12 98 -28 114 -36 16 -8 33 -15 39 -15 11 0 59 -21 162 -72 90 -44 102 -51 162 -91 84 -58 69 -81 -102 -153 -16 -7 -46 -20 -67 -28 -20 -9 -42 -16 -49 -16 -7 0 -36 -8 -65 -17 -49 -15 -52 -18 -35 -30 15 -10 18 -22 15 -55 -4 -46 -17 -64 -77 -105 -22 -15 -52 -38 -65 -50 -14 -13 -29 -23 -33 -23 -5 0 -29 -13 -54 -29 l-45 -29 47 -11 c94 -23 283 -80 328 -100 240 -105 371 -210 390 -315 l7 -34 -149 -72 c-238 -115 -315 -150 -330 -150 -20 0 -73 -32 -68 -40 3 -5 12 -7 20 -4 8 3 26 -4 41 -15 15 -12 33 -21 41 -21 7 0 16 -7 19 -15 4 -8 12 -15 20 -15 18 0 84 -84 108 -138 24 -53 14 -92 -26 -106 -34 -12 -57 7 -95 75 -26 49 -75 94 -128 120 -37 18 -111 24 -120 10 -3 -6 -13 -11 -21 -11 -37 0 -125 -54 -177 -109 -58 -60 -60 -66 -57 -113 1 -14 -4 -29 -10 -33 -7 -4 -8 -11 -1 -19 5 -6 11 -36 13 -66 2 -41 14 -76 49 -145 59 -114 80 -131 162 -128 160 4 207 15 207 49 0 17 92 90 136 109 19 8 51 27 71 43 21 16 49 32 63 35 23 6 26 2 43 -51 10 -31 20 -79 22 -106 3 -27 7 -51 9 -53 2 -2 24 15 48 39 81 78 129 110 263 179 32 16 65 35 72 40 6 6 22 9 34 7 24 -3 33 -25 45 -103 3 -22 7 -51 9 -65 2 -14 8 -50 14 -81 10 -59 8 -348 -3 -409 -4 -19 -9 -48 -11 -64 -8 -51 -21 -90 -52 -149 -8 -15 -13 -27 -11 -27 2 0 30 -5 63 -11 33 -5 76 -12 95 -14 19 -3 46 -8 60 -11 14 -4 32 -8 40 -10 8 -1 26 -5 40 -8 140 -28 120 -37 201 88 89 137 195 246 275 284 51 23 71 27 154 27 81 0 103 -4 152 -27 94 -44 190 -148 228 -248 20 -53 27 -56 49 -19 56 91 87 257 70 372 -6 39 -12 83 -14 97 -3 25 -8 40 -47 133 -26 63 -116 203 -152 236 -14 14 -26 30 -26 36 0 14 -62 75 -76 75 -6 0 -19 10 -30 21 -28 31 -190 142 -259 177 -79 40 -168 76 -230 92 -27 7 -55 17 -61 21 -5 5 -20 6 -32 2 -30 -7 -72 22 -72 50 0 34 11 67 22 67 6 0 22 8 36 18 37 26 120 55 136 49 8 -3 17 -3 21 1 4 4 21 7 38 8 63 2 77 4 77 12 0 4 -29 29 -65 55 -36 27 -73 60 -81 73 -9 13 -20 24 -25 24 -17 0 -184 185 -204 227 -9 18 -20 35 -25 38 -31 19 -132 278 -126 321 2 10 0 24 -4 29 -8 12 -8 4 -16 165 l-6 125 36 45 c20 25 36 53 36 62 0 9 15 45 34 81 19 36 33 67 30 70 -3 2 5 29 17 58 23 59 41 121 69 244 10 44 19 80 20 80 1 0 3 29 6 65 2 36 7 72 10 80 11 28 15 94 15 245 -1 162 -4 205 -15 224 -4 6 -7 26 -5 44 1 17 -2 40 -6 50 -4 9 -4 24 -1 33 4 9 2 22 -4 29 -6 7 -10 17 -9 21 4 13 -22 126 -32 146 -5 9 -11 29 -13 45 -2 15 -6 35 -9 43 -3 8 -24 67 -47 130 -23 63 -43 123 -44 133 -1 9 -8 23 -14 29 -7 7 -12 17 -12 22 0 10 -43 105 -61 136 -5 8 -16 31 -25 50 -20 45 -28 59 -111 210 -38 69 -74 136 -81 150 -6 14 -20 36 -31 50 -22 28 -154 230 -160 244 -2 5 -21 32 -42 60 -22 28 -39 54 -39 58 0 4 -11 19 -25 34 -14 15 -25 32 -25 38 0 6 -16 28 -35 48 -19 20 -35 39 -35 42 0 3 -10 16 -22 29 -13 14 -52 57 -88 97 -115 130 -193 210 -203 210 -5 0 -27 18 -48 40 -22 22 -42 40 -45 40 -3 0 -11 6 -18 13 -7 6 -42 33 -78 59 -58 41 -66 51 -71 85 -7 55 11 86 58 101 22 7 54 19 71 27 64 30 235 58 356 59 42 1 80 4 84 9 4 4 27 7 51 7 24 0 43 4 43 8 0 4 -17 34 -37 65 -39 58 -143 137 -182 137 -10 0 -21 3 -24 7 -9 9 -371 8 -385 -1 -7 -4 -16 -5 -21 -1 -5 3 -12 1 -15 -4 -7 -10 -111 -10 -121 1 -3 3 -19 4 -35 2 -15 -3 -31 0 -34 5 -4 6 -27 8 -55 4 -31 -3 -51 -1 -55 6 -9 14 -33 14 -41 1z m545 -5585 c16 -16 29 -34 28 -39 -1 -6 4 -29 11 -52 15 -47 1 -144 -25 -164 -7 -7 -14 -17 -14 -22 0 -23 -78 -85 -124 -98 -63 -17 -115 -2 -166 51 -58 60 -62 118 -8 135 22 7 24 6 86 -76 28 -36 39 -37 88 -8 32 19 34 22 17 29 -25 9 -83 75 -84 97 -1 9 -2 33 -4 52 -3 40 9 78 34 101 23 22 39 26 88 24 32 -1 50 -8 73 -30z m1223 -74 c20 -1 107 -80 107 -97 0 -6 9 -23 21 -37 11 -15 22 -44 24 -64 1 -21 4 -38 5 -38 7 0 6 -156 -1 -160 -4 -3 -6 -12 -3 -20 14 -35 -100 -185 -140 -185 -8 0 -27 -4 -41 -10 -25 -9 -25 -11 -11 -32 22 -32 20 -64 -6 -82 -30 -21 -50 -20 -82 5 -33 26 -33 17 -1 -25 14 -18 25 -38 25 -44 0 -7 5 -12 10 -12 6 0 15 -11 22 -25 9 -19 8 -29 -6 -50 -23 -35 -80 -30 -113 11 -58 72 -142 275 -129 310 3 7 1 16 -3 19 -5 2 -8 76 -6 162 2 157 2 159 34 218 32 60 77 115 93 115 5 0 22 10 37 21 16 12 34 19 39 15 6 -3 13 -3 16 2 4 7 25 8 109 3z"/>
 <path d="M4193 3808 c5 -38 30 -73 46 -64 10 7 5 60 -8 84 -6 12 -19 22 -28 22 -13 0 -15 -8 -10 -42z"/>
 <path d="M5425 3450 c-26 -28 -25 -67 1 -91 23 -21 52 -20 82 3 15 13 16 80 0 96 -19 19 -63 14 -83 -8z"/>
 <path d="M4853 9338 c29 -61 30 -62 51 -92 24 -34 15 -73 -22 -87 -15 -6 -94 -13 -177 -15 -173 -5 -233 -10 -293 -24 -24 -6 -47 -8 -52 -5 -5 3 -11 1 -14 -4 -3 -5 -27 -12 -53 -16 -27 -4 -51 -9 -55 -12 -5 -2 13 -20 40 -40 55 -41 68 -53 220 -199 61 -59 112 -113 112 -118 0 -6 23 -30 50 -54 28 -24 50 -50 50 -58 0 -7 4 -14 8 -14 5 0 39 -36 76 -81 55 -65 70 -78 82 -68 9 7 31 9 63 5 29 -4 52 -2 56 3 3 6 25 10 48 10 42 0 205 23 242 34 11 4 36 9 55 11 48 7 144 31 158 40 6 4 28 9 48 12 20 2 62 17 93 33 31 15 74 34 96 41 22 7 45 16 51 21 5 5 35 15 65 23 30 9 88 25 129 37 41 12 81 23 89 25 19 6 -31 44 -57 44 -10 0 -31 9 -45 20 -14 11 -30 20 -35 20 -11 0 -164 72 -192 90 -8 6 -26 15 -40 21 -14 6 -33 15 -42 20 -10 5 -26 13 -35 18 -10 4 -155 77 -323 160 -168 83 -312 155 -320 159 -8 5 -41 22 -72 38 -32 15 -58 32 -58 36 0 4 -4 8 -9 8 -5 0 0 -19 12 -42z"/>
 <path d="M6085 8630 c-3 -4 -22 -11 -42 -15 -21 -4 -58 -14 -83 -22 -25 -9 -55 -17 -68 -19 -13 -1 -44 -13 -70 -27 -26 -14 -68 -31 -92 -38 -25 -7 -54 -18 -65 -25 -24 -14 -219 -76 -231 -73 -5 1 -16 -1 -24 -4 -34 -13 -243 -48 -257 -43 -9 4 -21 2 -27 -3 -6 -5 -22 -9 -36 -9 -14 0 -45 -2 -70 -5 -25 -3 -60 -6 -79 -6 l-35 -1 26 -27 c14 -16 34 -42 45 -59 10 -17 37 -59 61 -92 23 -34 45 -70 49 -79 3 -10 14 -27 23 -38 10 -11 34 -50 54 -88 68 -127 85 -148 120 -143 17 2 38 6 46 9 8 3 31 10 50 16 48 13 158 55 216 82 46 21 205 134 212 150 2 4 18 19 37 33 29 23 37 25 62 15 26 -10 65 -18 103 -20 8 0 22 -3 30 -6 8 -3 29 -6 46 -7 18 -2 44 -13 59 -24 15 -12 35 -22 44 -22 9 0 33 -11 54 -25 20 -14 56 -35 79 -46 70 -33 102 -51 123 -69 11 -9 27 -19 36 -22 8 -3 54 -38 102 -78 l87 -72 -16 39 c-108 248 -241 493 -269 493 -6 0 -17 10 -23 23 -16 32 -62 149 -62 158 0 21 -100 158 -125 171 -29 16 -84 27 -90 18z m-41 -356 c22 -9 20 -24 -3 -24 -28 0 -52 11 -45 21 6 10 26 12 48 3z"/>
 <path d="M6335 8617 c8 -12 24 -41 34 -63 11 -23 24 -45 29 -48 6 -3 20 -37 33 -74 15 -45 36 -83 66 -116 23 -26 43 -52 43 -58 0 -5 10 -24 23 -41 29 -40 137 -250 137 -267 0 -6 9 -24 19 -39 11 -15 23 -40 27 -57 4 -16 15 -49 26 -73 11 -24 17 -52 15 -62 -3 -11 -1 -22 4 -25 13 -8 11 -85 -4 -113 -26 -52 -129 -44 -158 12 -16 31 -71 87 -85 87 -7 0 -21 10 -31 23 -20 25 -128 98 -218 148 -33 18 -71 41 -84 51 -13 10 -31 18 -39 18 -8 0 -49 20 -91 44 -42 24 -95 47 -118 51 -36 6 -44 4 -55 -14 -7 -12 -18 -21 -25 -21 -7 0 -13 -4 -13 -10 0 -21 -227 -170 -259 -170 -8 0 -22 -6 -30 -14 -21 -17 -200 -78 -211 -71 -5 3 -11 1 -15 -5 -3 -5 -17 -10 -31 -10 l-25 0 26 -37 c14 -21 25 -44 25 -53 0 -8 9 -26 20 -40 11 -14 20 -31 20 -38 0 -7 4 -20 9 -30 50 -99 61 -122 61 -133 0 -8 12 -36 26 -63 14 -26 23 -50 21 -53 -3 -2 8 -36 24 -74 16 -38 27 -74 24 -79 -3 -5 -1 -11 5 -15 5 -3 10 -14 10 -24 0 -10 9 -46 20 -80 12 -34 23 -82 25 -107 3 -25 7 -49 9 -52 3 -6 15 -107 21 -178 1 -11 4 -24 7 -30 5 -8 4 -399 -1 -399 -1 0 -4 -15 -5 -33 -12 -115 -19 -168 -23 -176 -3 -4 -7 -28 -9 -53 -2 -25 -9 -52 -16 -61 -11 -14 -10 -15 7 -8 89 34 170 56 186 51 11 -4 25 -2 32 3 17 13 105 14 144 1 37 -12 47 -30 86 -154 38 -122 54 -159 82 -200 14 -21 25 -42 25 -46 0 -12 82 -119 117 -152 27 -25 63 -29 63 -7 0 4 18 15 39 24 44 17 85 65 95 111 4 17 13 37 20 45 8 8 16 27 20 43 4 15 17 51 30 80 13 28 27 63 31 77 4 14 22 55 40 92 19 36 31 69 28 71 -3 3 2 18 11 34 19 33 38 82 41 103 4 28 64 188 89 238 14 27 22 52 19 56 -3 3 6 33 21 66 15 34 29 75 32 92 2 17 8 36 14 42 5 5 10 16 10 23 0 8 7 30 17 51 9 20 15 40 15 44 -1 5 91 288 138 423 5 17 41 125 79 240 38 116 74 224 80 240 53 158 66 193 78 211 7 11 10 23 7 26 -3 4 1 21 8 40 8 18 27 71 42 118 16 47 38 95 49 107 22 24 17 53 -9 53 -13 0 -74 28 -176 81 -36 18 -55 27 -138 65 -47 21 -97 47 -112 56 -14 10 -32 18 -40 18 -8 0 -29 11 -48 25 -19 14 -40 25 -47 25 -7 0 -61 24 -120 53 -59 30 -124 61 -143 70 -19 9 -42 21 -50 26 -8 4 -37 18 -65 31 -27 12 -61 29 -75 38 -39 25 -55 25 -35 -1z"/>
 <path d="M7455 7998 c-11 -35 -30 -88 -43 -118 -13 -30 -25 -64 -27 -75 -3 -25 -65 -206 -74 -220 -4 -5 -13 -35 -20 -65 -8 -30 -21 -71 -30 -90 -10 -19 -23 -60 -31 -90 -7 -30 -19 -64 -26 -75 -8 -11 -14 -27 -14 -35 0 -21 -97 -315 -115 -350 -8 -15 -12 -30 -9 -33 3 -2 -6 -33 -20 -68 -15 -34 -26 -69 -26 -76 0 -8 -14 -51 -32 -96 -17 -45 -33 -92 -34 -105 -2 -13 -8 -29 -14 -37 -6 -7 -17 -37 -24 -66 -8 -30 -20 -67 -27 -84 -13 -32 -40 -105 -81 -220 -14 -38 -33 -83 -42 -100 -9 -16 -16 -37 -16 -45 0 -8 -11 -37 -25 -65 -13 -27 -25 -56 -25 -63 0 -13 -44 -125 -60 -154 -6 -10 -10 -22 -10 -28 0 -9 -20 -56 -70 -165 -10 -22 -23 -52 -29 -68 -6 -15 -31 -40 -57 -56 l-46 -30 34 -17 c56 -28 114 -81 148 -134 30 -47 35 -50 75 -50 52 0 105 25 105 50 0 16 39 152 57 200 4 8 5 18 5 22 -1 4 5 27 13 50 8 24 23 81 35 128 21 89 58 225 60 225 1 0 3 16 6 35 2 19 8 44 13 55 10 21 30 96 35 130 3 22 45 191 53 215 3 8 7 29 9 47 1 18 7 40 12 50 5 10 13 38 17 63 4 25 10 49 13 55 3 5 7 25 9 44 2 18 8 41 12 50 5 9 12 34 16 56 4 22 11 45 17 52 5 7 7 16 4 21 -3 5 1 34 9 63 8 30 20 77 26 104 5 28 13 57 16 65 3 8 7 24 8 35 3 23 34 153 43 175 3 8 4 19 3 24 -1 5 4 30 12 55 9 25 21 73 27 106 7 33 15 64 18 69 3 6 6 19 7 30 3 30 32 131 44 155 6 11 9 26 6 33 -3 8 6 50 21 93 14 44 27 97 30 118 2 20 9 47 15 59 12 22 27 208 17 208 -3 0 -13 -28 -23 -62z"/>
 <path d="M5855 5830 c-4 -6 -14 -10 -23 -8 -23 3 -59 -6 -175 -45 -84 -27 -99 -36 -104 -57 -3 -14 -9 -29 -13 -35 -4 -5 -15 -35 -25 -65 -10 -30 -29 -75 -43 -99 -13 -24 -20 -42 -15 -39 4 2 22 10 38 17 17 8 53 24 80 37 63 29 110 48 157 65 31 11 42 10 64 -2 15 -7 30 -23 34 -34 5 -11 18 -44 30 -73 12 -30 19 -56 16 -60 -3 -3 -2 -10 3 -16 5 -6 25 -40 44 -76 49 -93 80 -136 147 -205 65 -67 73 -73 150 -114 82 -43 131 -54 182 -40 45 12 97 47 97 65 1 6 10 23 22 38 20 25 20 27 2 49 -40 52 -94 89 -150 104 -32 9 -65 22 -73 28 -8 7 -26 16 -40 20 -25 7 -90 62 -90 76 0 4 -12 21 -27 38 -28 31 -52 70 -113 184 -35 66 -92 220 -88 239 4 16 -77 24 -87 8z"/>
 </g>

</svg>