<?xml version="1.0" ?><svg height="512" id="Layer_1" version="1.1" viewBox="0 0 512 512" width="512" xml:space="preserve" xmlns="http://www.w3.org/2000/svg" xmlns:cc="http://creativecommons.org/ns#" xmlns:dc="http://purl.org/dc/elements/1.1/" xmlns:inkscape="http://www.inkscape.org/namespaces/inkscape" xmlns:rdf="http://www.w3.org/1999/02/22-rdf-syntax-ns#" xmlns:sodipodi="http://sodipodi.sourceforge.net/DTD/sodipodi-0.dtd" xmlns:svg="http://www.w3.org/2000/svg"><defs id="defs12"/><g id="g5457"><rect height="512" id="rect2987" rx="64" ry="64" style="fill:#e7322b;fill-opacity:1;fill-rule:nonzero;stroke:none" width="512" x="0" y="0"/><path d="m 345.58725,56.00002 h -60.6113 c -59.5547,0 -110.0628,45.33326 -110.0628,133.33742 0,52.80277 24.4594,91.73007 68.0537,110.93158 l -81.3395,147.20746 c -2.6623,4.8044 0,8.5235 4.2421,8.5235 h 37.7534 c 3.1947,0 5.3205,-1.0635 6.3841,-3.7177 l 73.9054,-144.54645 h 26.5811 v 144.54645 c 0,1.5947 1.5988,3.7177 3.715,3.7177 h 32.9762 c 3.1908,0 4.2543,-1.5906 4.2543,-4.2515 V 61.33287 c 0,-3.73817 -2.1284,-5.33285 -5.8517,-5.33285 z m -35.0938,217.61023 h -22.331 c -35.0897,0 -69.1131,-25.60881 -69.1131,-89.60565 0,-66.67824 31.895,-93.87764 64.3264,-93.87764 h 27.1177 v 183.48329 z" id="path9" style="fill:#ffffff"/></g></svg>