<svg version="1.0" xmlns="http://www.w3.org/2000/svg"
 width="692.000000pt" height="800.000000pt" viewBox="0 0 692.000000 800.000000"
 preserveAspectRatio="xMidYMid meet">
<g transform="translate(0.000000,800.000000) scale(0.100000,-0.100000)"
fill="#000000" stroke="none">
<path d="M3455 6044 c-11 -3 -38 -9 -60 -14 -201 -46 -244 -60 -363 -116 -40
-19 -75 -34 -77 -34 -3 0 -36 -20 -75 -45 -39 -25 -73 -45 -76 -45 -11 0 -144
-111 -205 -172 -73 -72 -154 -173 -191 -238 -56 -98 -65 -118 -90 -185 -81
-222 -102 -418 -95 -885 5 -402 6 -406 112 -570 23 -36 54 -92 69 -125 15 -33
38 -71 50 -85 56 -60 116 -183 116 -237 0 -12 4 -24 9 -27 4 -3 11 -22 14 -43
9 -52 33 -135 51 -178 9 -19 23 -52 32 -72 8 -21 19 -47 24 -58 30 -72 39
-235 14 -283 -14 -29 -62 -72 -80 -72 -12 0 -145 -80 -179 -108 -16 -13 -65
-57 -109 -96 -43 -39 -99 -85 -123 -103 -41 -29 -182 -102 -243 -126 -14 -5
-34 -13 -45 -17 -11 -5 -45 -16 -75 -26 -30 -9 -64 -20 -75 -24 -11 -4 -38
-13 -60 -19 -22 -6 -71 -20 -110 -32 -92 -27 -152 -42 -255 -63 -47 -10 -95
-22 -108 -27 -13 -5 -34 -9 -47 -9 -13 0 -34 -4 -47 -9 -13 -5 -59 -17 -103
-26 -44 -9 -93 -21 -110 -25 -34 -10 -81 -22 -175 -45 -135 -32 -165 -42 -229
-73 -39 -19 -80 -85 -107 -172 -10 -30 -20 -59 -24 -65 -4 -5 -10 -21 -13 -35
-3 -14 -13 -50 -22 -80 -18 -59 -31 -111 -45 -175 -4 -22 -20 -94 -35 -160
-15 -66 -31 -138 -35 -160 -5 -22 -17 -67 -26 -100 -9 -33 -20 -76 -25 -95 -4
-19 -13 -53 -18 -75 -5 -22 -19 -85 -30 -140 -12 -55 -25 -118 -30 -140 -20
-84 -61 -301 -61 -320 0 -13 342 -15 3391 -15 l3391 0 -6 67 c-6 72 -15 134
-42 298 -9 55 -18 118 -21 140 -2 22 -8 49 -13 60 -5 11 -11 36 -14 55 -11 82
-53 212 -103 320 -31 68 -39 96 -64 233 -22 121 -45 181 -98 247 -54 69 -146
146 -216 180 -16 8 -32 17 -35 21 -3 3 -21 13 -40 22 -19 10 -48 26 -65 37
-16 10 -39 19 -51 19 -11 1 -24 4 -28 8 -6 7 -42 20 -126 49 -25 8 -54 19 -65
24 -11 5 -42 16 -70 26 -27 9 -54 21 -59 26 -6 4 -19 8 -31 8 -12 0 -25 4 -31
8 -5 4 -34 16 -64 26 -30 11 -59 23 -64 27 -6 5 -18 9 -28 9 -10 0 -26 4 -36
9 -9 6 -51 22 -92 36 -41 14 -83 30 -92 36 -10 5 -25 9 -33 9 -8 0 -23 4 -33
9 -35 18 -93 41 -102 41 -5 0 -35 12 -67 26 -58 27 -170 131 -311 289 -34 39
-88 86 -120 105 -117 71 -165 135 -191 258 -23 109 -3 297 44 407 6 17 22 57
35 90 12 33 28 74 35 90 7 17 18 55 25 85 7 30 16 63 21 72 5 10 9 25 9 33 0
17 34 76 123 210 21 31 49 80 64 108 14 29 30 60 34 69 5 10 9 26 9 36 0 10 4
22 9 28 5 5 16 36 26 69 9 33 21 69 25 80 5 11 11 38 14 60 3 22 8 64 12 93 7
58 -6 118 -38 164 -27 39 -38 146 -48 468 -12 341 -24 442 -60 510 -35 66
-109 169 -145 202 -78 71 -110 97 -135 110 -14 7 -27 15 -30 18 -6 6 -105 54
-143 69 -15 6 -39 11 -52 11 -13 0 -26 4 -29 9 -3 5 -20 11 -38 14 -18 2 -58
12 -88 22 -30 9 -70 19 -87 22 -18 3 -33 9 -33 14 0 5 -7 9 -15 9 -16 0 -90
44 -113 67 -8 8 -42 28 -76 46 -58 30 -67 31 -191 33 -71 2 -139 1 -150 -2z
m437 -997 c261 -69 425 -227 473 -455 21 -103 19 -284 -5 -400 -34 -168 -130
-321 -259 -416 -82 -61 -187 -106 -325 -140 l-131 -33 -12 -214 c-6 -118 -12
-233 -12 -256 l-1 -43 -79 0 -80 0 -5 43 c-16 119 -47 610 -40 616 5 5 74 21
154 36 184 35 237 55 299 111 102 92 144 235 144 489 0 229 -32 343 -119 428
-96 93 -289 128 -499 92 -90 -16 -234 -69 -240 -89 -2 -6 -18 -80 -36 -164
l-32 -153 -66 3 -66 3 -3 241 c-2 185 1 244 10 251 13 11 152 44 263 63 33 5
71 12 85 14 14 2 129 3 255 2 211 -3 238 -5 327 -29z m-222 -2261 c93 -46 145
-161 120 -265 -45 -190 -282 -251 -410 -105 -44 51 -60 93 -60 159 0 182 183
293 350 211z"/>
</g>
</svg>
